<svg width="12" height="12" viewBox="0 0 12 12" fill="none" xmlns="http://www.w3.org/2000/svg">
<path d="M6.50182 0.874838L7.78842 3.48304C7.89342 3.69584 8.09642 3.84284 8.33022 3.87644L11.2072 4.29504C11.6664 4.36224 11.8498 4.92644 11.518 5.24984L9.43622 7.27984C9.26682 7.44504 9.18842 7.68304 9.22902 7.91684L9.72042 10.7826C9.79882 11.2404 9.31862 11.589 8.90842 11.3734L6.33522 10.0196C6.12522 9.90904 5.87462 9.90904 5.66462 10.0196L3.09142 11.3734C2.68122 11.589 2.20102 11.2404 2.27942 10.7826L2.77082 7.91684C2.81142 7.68304 2.73302 7.44504 2.56362 7.27984L0.481819 5.24984C0.150019 4.92644 0.333419 4.36084 0.792619 4.29504L3.66962 3.87644C3.90482 3.84284 4.10642 3.69444 4.21142 3.48304L5.49802 0.874838C5.70382 0.459038 6.29742 0.459038 6.50182 0.874838Z" fill="#FFE91E"/>
</svg>
