<svg width="47" height="47" viewBox="0 0 47 47" fill="none" xmlns="http://www.w3.org/2000/svg">
<path d="M23.4441 37.4118C18.8851 37.4118 14.3308 37.4118 9.77183 37.4118C7.53463 37.4118 6.10113 35.9971 6.10113 33.774C6.09643 28.6322 6.09173 23.4904 6.10113 18.3439C6.10113 16.3229 7.56283 14.8236 9.58383 14.7813C10.8763 14.7531 12.1688 14.7813 13.4566 14.7719C14.4624 14.7672 14.8948 14.4429 15.2238 13.4747C15.5387 12.5535 15.8395 11.6276 16.1638 10.7064C16.4505 9.88864 16.8782 9.58314 17.7477 9.58314C21.597 9.57844 25.4463 9.58314 29.3003 9.58314C30.0805 9.58314 30.5881 9.94034 30.8372 10.6782C31.1615 11.6464 31.4858 12.6193 31.8195 13.5828C32.1062 14.4147 32.5762 14.7672 33.4457 14.7719C34.7147 14.7813 35.979 14.7625 37.248 14.7719C39.4617 14.7954 40.9046 16.243 40.9093 18.452C40.914 23.5703 40.914 28.6886 40.9093 33.8069C40.9093 35.936 39.4523 37.3977 37.3373 37.4024C32.7078 37.4071 28.0783 37.4024 23.4488 37.4024L23.4441 37.4118ZM23.5193 33.9291C28.3039 33.9103 32.1955 30.0563 32.219 25.3093C32.2425 20.4871 28.3039 16.5156 23.5146 16.5297C18.6454 16.5438 14.7256 20.5059 14.7773 25.3516C14.829 30.108 18.7441 33.9432 23.5193 33.9291ZM36.214 18.2734C35.5607 18.2734 35.0202 18.8186 35.0155 19.4813C35.0108 20.144 35.5372 20.6986 36.1905 20.7174C36.8673 20.7362 37.436 20.1628 37.4266 19.4719C37.4172 18.8045 36.8767 18.2734 36.2187 18.2781L36.214 18.2734Z" fill="#626262"/>
<path d="M23.5137 20.022C26.3995 20.0408 28.726 22.3626 28.726 25.2249C28.726 28.1389 26.3666 30.4889 23.4808 30.4607C20.5527 30.4278 18.245 28.1013 18.2638 25.192C18.2826 22.3344 20.6467 20.0079 23.5137 20.022Z" fill="#626262"/>
</svg>
