<svg width="100" height="100" viewBox="0 0 100 100" fill="none" xmlns="http://www.w3.org/2000/svg">
<path d="M50 88.05C71.0144 88.05 88.05 71.0144 88.05 50C88.05 28.9855 71.0144 11.95 50 11.95C28.9855 11.95 11.95 28.9855 11.95 50C11.95 71.0144 28.9855 88.05 50 88.05Z" fill="black"/>
<path d="M53.5399 50L66.5199 37.02C67.4999 36.04 67.4999 34.46 66.5199 33.48C65.5399 32.5 63.9599 32.5 62.9799 33.48L49.9999 46.46L37.0199 33.48C36.0399 32.5 34.4599 32.5 33.4799 33.48C32.4999 34.46 32.4999 36.04 33.4799 37.02L46.4599 50L33.4799 62.98C32.4999 63.96 32.4999 65.54 33.4799 66.52C33.9699 67.01 34.6099 67.25 35.2499 67.25C35.8899 67.25 36.5299 67.01 37.0199 66.52L49.9999 53.54L62.9799 66.52C63.4699 67.01 64.1099 67.25 64.7499 67.25C65.3899 67.25 66.0299 67.01 66.5199 66.52C67.4999 65.54 67.4999 63.96 66.5199 62.98L53.5399 50Z" fill="white"/>
</svg>
