<svg width="24" height="24" viewBox="0 0 24 24" fill="none" xmlns="http://www.w3.org/2000/svg">
<path fill-rule="evenodd" clip-rule="evenodd" d="M16.6129 12.4972L12.5739 16.7677C12.3261 17.0298 11.9242 17.0298 11.6764 16.7677L7.63735 12.4972C7.3895 12.2351 7.3895 11.8102 7.63735 11.5482C7.8852 11.2861 8.28705 11.2861 8.53491 11.5482L11.4905 14.6732L11.4905 4.75113C11.4905 4.38052 11.7746 4.08008 12.1251 4.08008C12.4757 4.08008 12.7598 4.38052 12.7598 4.75113L12.7598 14.6732L15.7154 11.5482C15.9632 11.2861 16.3651 11.2861 16.6129 11.5482C16.8608 11.8102 16.8608 12.2351 16.6129 12.4972Z" fill="#626262"/>
<path fill-rule="evenodd" clip-rule="evenodd" d="M3.78906 20.2483C3.78906 19.8995 4.07183 19.6167 4.42064 19.6167L19.5785 19.6167C19.9273 19.6167 20.2101 19.8995 20.2101 20.2483C20.2101 20.5971 19.9273 20.8799 19.5785 20.8799L4.42064 20.8799C4.07183 20.8799 3.78906 20.5971 3.78906 20.2483Z" fill="#626262"/>
</svg>
