<svg width="14" height="21" viewBox="0 0 56 84" fill="none" xmlns="http://www.w3.org/2000/svg">
<path d="M50.2999 5.39001V76.61L34.45 61.54C32.7 59.88 30.4199 58.97 28.0099 58.97C25.5999 58.97 23.3099 59.88 21.5699 61.54L5.71994 76.61V5.39001H50.3099M51.6699 0.390015H4.32994C2.32994 0.390015 0.699951 2.33999 0.699951 4.73999V79.26C0.699951 81.84 2.46995 83.62 4.33995 83.62C5.09995 83.62 5.88994 83.33 6.57994 82.67L24.9999 65.16C25.8399 64.36 26.9199 63.96 27.9999 63.96C29.0799 63.96 30.1599 64.36 30.9999 65.16L49.4199 82.67C50.1099 83.32 50.8899 83.62 51.6599 83.62C53.5399 83.62 55.2999 81.85 55.2999 79.26V4.73999C55.2999 2.33999 53.6799 0.390015 51.6699 0.390015Z" fill="black"/>
</svg>
