<svg width="20" height="20" viewBox="0 0 20 20" fill="none" xmlns="http://www.w3.org/2000/svg">
<path fill-rule="evenodd" clip-rule="evenodd" d="M10.0009 18.3999C14.6401 18.3999 18.4009 14.6391 18.4009 9.99988C18.4009 5.36069 14.6401 1.59988 10.0009 1.59988C5.36167 1.59988 1.60086 5.36069 1.60086 9.99988C1.60086 14.6391 5.36167 18.3999 10.0009 18.3999ZM10.0009 19.1199C15.0377 19.1199 19.1209 15.0367 19.1209 9.99988C19.1209 4.96305 15.0377 0.879883 10.0009 0.879883C4.96402 0.879883 0.880859 4.96305 0.880859 9.99988C0.880859 15.0367 4.96402 19.1199 10.0009 19.1199Z" fill="#B4F34C"/>
<path d="M15.5495 10.305L14.6795 7.17124C14.6627 7.06092 14.7055 6.9411 14.7928 6.85371C15.3761 6.27047 15.4333 5.38476 14.9159 4.83481C14.3717 4.32315 13.4899 4.38027 12.9047 4.96554C12.8173 5.05292 12.6995 5.09364 12.5871 5.07883L9.45336 4.20892C8.96657 4.0676 8.41097 3.91031 7.89683 4.42446L7.45788 4.86341C7.33798 4.98331 7.3209 5.10443 7.32671 5.18339C7.33714 5.31169 7.41894 5.43412 7.55314 5.51956C8.19711 5.92373 8.84856 6.34352 9.47669 6.7481L9.71397 6.90002C9.89677 7.01779 10.0815 7.13749 10.2663 7.25322C10.2858 7.26457 10.3053 7.27592 10.3248 7.28727C10.3754 7.31757 10.4221 7.34402 10.4314 7.36948C10.4404 7.40287 10.4294 7.44471 10.4029 7.47112L5.92399 11.9501C5.81222 12.0618 5.65302 12.0977 5.52203 12.0399L4.40606 11.5336C4.2482 11.4448 4.04556 11.4779 3.90737 11.6161L3.42777 12.0957C3.26317 12.2603 3.25235 12.5177 3.41227 12.6777L5.42939 14.329L7.09228 16.3577C7.24449 16.5099 7.50192 16.4991 7.66856 16.3324L8.14816 15.8528C8.28634 15.7146 8.31944 15.512 8.23624 15.3678L7.72233 14.2402C7.66439 14.1132 7.70039 13.95 7.81216 13.8382L12.2911 9.3593C12.3196 9.33085 12.3614 9.31984 12.3927 9.33087C12.4202 9.33805 12.4486 9.38675 12.475 9.43747C12.4863 9.45695 12.4977 9.47643 12.509 9.49591C12.6268 9.67871 12.7465 9.86343 12.8622 10.0483L13.0123 10.2796C13.4188 10.9097 13.8386 11.5612 14.2427 12.2091C14.3262 12.3414 14.4505 12.4251 14.5788 12.4355C14.6578 12.4413 14.7789 12.4243 14.8988 12.3044L15.3378 11.8654C15.8539 11.3492 15.6946 10.7957 15.5533 10.3089L15.5495 10.305Z" fill="#B4F34C"/>
</svg>
