<svg width="96" height="82" viewBox="0 0 96 82" fill="none" xmlns="http://www.w3.org/2000/svg">
<path d="M92.89 24.22L82.38 18.22V14.7C82.38 10.06 78.61 5.82004 74.14 5.45004C71.06 5.19004 68.13 6.53004 66.23 9.04004C65.08 8.37004 63.93 7.68004 62.78 7.02004L52.8 1.32004C49.83 -0.369961 46.13 -0.34996 43.14 1.35004L3.11 24.22C1.18 25.32 0 27.37 0 29.58V31.71C0 34.32 2.12 36.44 4.73 36.44H13V75.94C13 79.25 15.69 81.94 19 81.94H27.82C31.13 81.94 33.82 79.25 33.82 75.94V57.15C33.82 48.54 40.23 41.54 48.1 41.54C55.97 41.54 62.38 48.54 62.38 57.15V75.94C62.38 79.25 65.07 81.94 68.38 81.94H76.99C80.3 81.94 82.99 79.25 82.99 75.94V36.44H91.26C93.87 36.44 95.99 34.32 95.99 31.71V29.58C95.99 27.36 94.8 25.32 92.88 24.22H92.89Z" fill="#B4F34C"/>
</svg>
