<svg width="96" height="82" viewBox="0 0 96 82" fill="none" xmlns="http://www.w3.org/2000/svg">
<path d="M76.5 81.95L63.87 81.92C60.3 81.92 57.39 79 57.39 75.42V55.84C57.39 50.72 53.22 46.55 48.11 46.55C43 46.55 38.83 50.72 38.83 55.84V75.42C38.83 79 35.92 81.91 32.35 81.92L19.52 81.95C15.93 81.95 13.01 79.03 13.01 75.45V36.45H4.73C2.12 36.45 0 34.33 0 31.72V29.59C0 27.38 1.19 25.32 3.11 24.23L43.14 1.34003C46.13 -0.35997 49.83 -0.37997 52.8 1.31003L62.78 7.01003C63.39 7.36003 63.99 7.71003 64.6 8.07003C65.14 8.39003 65.69 8.71003 66.24 9.02003C68.14 6.51003 71.07 5.16003 74.15 5.43003C78.61 5.80003 82.39 10.04 82.39 14.68V18.2L92.9 24.2C94.82 25.3 96.01 27.35 96.01 29.56V31.69C96.01 34.3 93.89 36.42 91.28 36.42H83.01V75.42C83.01 79 80.09 81.92 76.51 81.92L76.5 81.95ZM48.1 41.55C55.98 41.55 62.38 47.96 62.38 55.84V75.42C62.38 76.25 63.05 76.92 63.88 76.92L76.5 76.95C77.32 76.95 77.99 76.28 77.99 75.45V35.98C77.99 33.48 80.02 31.45 82.52 31.45H90.99V29.58C90.99 29.16 90.76 28.77 90.4 28.56L79.74 22.47C78.28 21.64 77.37 20.07 77.37 18.39V14.69C77.37 12.61 75.63 10.58 73.72 10.42C71.75 10.26 70.61 11.47 70.09 12.21C68.76 14.13 66.14 14.73 64.12 13.58C63.43 13.19 62.74 12.78 62.06 12.38C61.47 12.03 60.88 11.69 60.29 11.35L50.33 5.66003C48.88 4.84003 47.08 4.85003 45.62 5.68003L5.59 28.56C5.22 28.77 5 29.16 5 29.58V31.45H13.47C15.97 31.45 18 33.48 18 35.98V75.45C18 76.28 18.67 76.95 19.5 76.95L32.32 76.92C33.15 76.92 33.82 76.25 33.82 75.42V55.84C33.82 47.96 40.23 41.55 48.1 41.55Z" fill="#626262"/>
</svg>
