<svg width="18" height="18" viewBox="0 0 18 18" fill="none" xmlns="http://www.w3.org/2000/svg">
<path d="M9.09354 2.52542C9.17274 2.43002 9.28074 2.35802 9.42834 2.32202C9.99534 2.17802 10.6415 2.89622 10.8611 3.34442C11.0591 3.74762 11.1401 4.17782 11.1689 4.62062C11.2211 5.42342 11.1239 6.21542 10.9763 7.00382C10.9007 7.40522 10.9817 7.49162 11.3939 7.44662C12.4415 7.33502 13.4909 7.28642 14.5421 7.41782C14.9993 7.47542 15.4457 7.57082 15.8561 7.79582C16.3871 8.08742 16.5761 8.54462 16.3817 9.11702C16.3061 9.33662 16.1909 9.54542 16.0757 9.74882C16.0001 9.88382 15.9965 9.99182 16.0829 10.1214C16.1729 10.2564 16.2575 10.4022 16.3133 10.5552C16.4825 11.0268 16.3313 11.4264 15.9029 11.6874C15.5807 11.8836 15.6005 11.88 15.6581 12.258C15.6995 12.537 15.7067 12.8304 15.6779 13.1112C15.6473 13.3938 15.4637 13.6062 15.2027 13.7268C15.0461 13.7988 14.9921 13.9086 14.9903 14.0742C14.9867 14.4432 14.9057 14.7978 14.7257 15.1236C14.5133 15.507 14.1839 15.6996 13.7447 15.6978C11.7053 15.6924 9.66774 15.687 7.62834 15.6744C7.48974 15.6744 7.34034 15.6294 7.21434 15.5664C6.92994 15.4278 6.65634 15.264 6.37734 15.1164C6.28374 15.0678 6.24414 15.0084 6.24414 14.8986C6.24774 12.9294 6.24414 10.962 6.25134 8.99282C6.25134 8.92802 6.30174 8.83802 6.35754 8.80202C7.28634 8.17922 8.03334 7.32422 8.48154 6.29642C8.72994 5.72582 8.83614 5.06522 8.87394 4.42442C8.90634 3.88802 8.73894 2.96462 9.09894 2.52722L9.09354 2.52542Z" fill="#B4F34C"/>
<path d="M5.83087 12.0618C5.83087 13.0302 5.83087 14.0004 5.83087 14.9688C5.83087 15.462 5.65447 15.6384 5.16307 15.6384C4.16947 15.6384 3.17767 15.6384 2.18407 15.6384C1.74307 15.6384 1.54688 15.444 1.54688 15.0066C1.54688 13.0446 1.54688 11.0826 1.54688 9.12062C1.54688 8.66882 1.73767 8.47802 2.18947 8.47802C3.20647 8.47802 4.22167 8.47802 5.23867 8.47802C5.62028 8.47802 5.82907 8.68322 5.83087 9.06482C5.83267 10.0638 5.83087 11.0628 5.83087 12.06V12.0618Z" fill="#B4F34C"/>
</svg>
