<svg width="20" height="21" viewBox="0 0 20 21" fill="none" xmlns="http://www.w3.org/2000/svg">
<path d="M17.5737 16.345L13.4257 12.197C14.1137 11.181 14.4837 9.98501 14.4837 8.73302C14.4837 7.07901 13.8397 5.52302 12.6697 4.35302C10.2537 1.93702 6.3237 1.93702 3.9097 4.35302C2.7397 5.52302 2.0957 7.07901 2.0957 8.73302C2.0957 10.387 2.7397 11.943 3.9097 13.113C5.1177 14.321 6.7037 14.925 8.2897 14.925C9.4997 14.925 10.7097 14.573 11.7537 13.869L15.9037 18.019C16.3477 18.463 17.0657 18.463 17.5097 18.019L17.5757 17.953C18.0197 17.509 18.0197 16.791 17.5757 16.347L17.5737 16.345ZM4.6157 12.405C3.6337 11.423 3.0937 10.119 3.0937 8.73101C3.0937 7.34301 3.6337 6.03901 4.6157 5.05701C5.6277 4.04501 6.9597 3.53701 8.2897 3.53701C9.6197 3.53701 10.9497 4.04301 11.9637 5.05701C12.9457 6.03901 13.4857 7.34301 13.4857 8.73101C13.4857 10.119 12.9457 11.423 11.9637 12.405C9.9377 14.431 6.6417 14.431 4.6177 12.405H4.6157Z" fill="white"/>
</svg>
