<svg width="29" height="40" viewBox="0 0 29 40" fill="none" xmlns="http://www.w3.org/2000/svg">
<path d="M28.1553 13.3811C27.9995 17.681 25.8403 21.9076 23.8829 25.7445C21.5358 30.347 18.9 34.8119 16.0853 39.1439C15.3427 40.2854 13.6741 40.2854 12.9314 39.1439C10.0893 34.7661 7.4213 30.2461 5.05588 25.5932C2.21372 19.996 -0.93558 13.8624 2.03035 7.65092C4.2995 2.89717 9.29162 0 14.5084 0C19.881 0 25.0014 3.07595 27.1697 8.05432C27.9399 9.82838 28.2195 11.607 28.1553 13.3811Z" fill="#B4F34C"/>
<path d="M14.5091 23.2735C19.846 23.2735 24.1724 18.9471 24.1724 13.6101C24.1724 8.27321 19.846 3.94678 14.5091 3.94678C9.17213 3.94678 4.8457 8.27321 4.8457 13.6101C4.8457 18.9471 9.17213 23.2735 14.5091 23.2735Z" fill="white"/>
<path d="M12.2899 14.325C10.6671 14.1279 9.2002 13.9491 7.7562 13.7749C7.56825 13.752 7.56825 13.477 7.7562 13.4586L12.3174 12.9223C12.432 12.9085 12.4962 12.7802 12.4366 12.6839L11.231 10.5844C11.1485 10.4423 11.3043 10.2864 11.4464 10.3643L13.5689 11.5333C13.6697 11.5883 13.7935 11.5241 13.8027 11.4141L14.3436 6.87583C14.3665 6.68788 14.637 6.68788 14.6599 6.87583C14.8387 8.34275 15.022 9.82342 15.2146 11.4141C15.2283 11.5287 15.3521 11.5929 15.453 11.5379L17.5479 10.3689C17.6854 10.291 17.8413 10.4469 17.7634 10.589C17.3508 11.3224 17.007 11.9367 16.599 12.661C16.544 12.7619 16.6082 12.8902 16.7182 12.8994C18.2951 13.0965 19.7758 13.2844 21.2427 13.4678C21.4307 13.4907 21.4307 13.7658 21.2427 13.7841C19.8125 13.9537 18.3547 14.1325 16.709 14.3342C16.5944 14.348 16.5302 14.4763 16.5898 14.5772C16.9841 15.2694 17.3508 15.9157 17.8092 16.718C17.8917 16.8601 17.7313 17.0159 17.5892 16.938C16.8007 16.4796 16.1635 16.1129 15.4667 15.7094C15.3659 15.6499 15.2375 15.714 15.2238 15.8286C15.0266 17.4239 14.8479 18.8908 14.6691 20.3486C14.6461 20.5365 14.3757 20.5365 14.3528 20.3486C14.174 18.9 13.9952 17.4331 13.7981 15.8241C13.7843 15.7094 13.656 15.6453 13.5551 15.7049C12.8721 16.0991 12.2441 16.4658 11.4739 16.9105C11.3364 16.993 11.176 16.8371 11.2539 16.695C11.671 15.9295 12.0149 15.2877 12.4045 14.568C12.4595 14.4672 12.3908 14.3434 12.2807 14.3296L12.2899 14.325Z" fill="#B4F34C"/>
</svg>
