<svg width="9" height="10" viewBox="0 0 9 10" fill="none" xmlns="http://www.w3.org/2000/svg">
<path d="M2.55064 8.26905C2.43164 8.26905 2.31264 8.27405 2.19364 8.26905C1.73164 8.24705 1.40464 7.92105 1.38664 7.45805C1.37764 7.24005 1.38164 7.02205 1.38464 6.80405C1.38864 6.55405 1.30664 6.33805 1.14664 6.15005C0.980645 5.95405 0.810645 5.75905 0.646645 5.56105C0.364645 5.22005 0.368645 4.77905 0.653645 4.43805C0.814645 4.24505 0.977645 4.05405 1.14064 3.86405C1.30664 3.67005 1.39064 3.44905 1.38464 3.19205C1.37964 2.98705 1.37964 2.78205 1.38464 2.57805C1.39764 2.08105 1.72864 1.75005 2.22264 1.73605C2.24864 1.73605 2.27564 1.73605 2.30164 1.73605C3.35464 1.74505 3.22065 1.75305 3.99064 1.08405C4.46165 0.674051 4.84965 0.666051 5.32465 1.06805C6.14464 1.76205 5.95564 1.74105 7.08764 1.73905C7.59064 1.73905 7.91565 2.06705 7.93264 2.56705C7.93264 2.58705 7.93364 2.60705 7.93364 2.62605C7.92664 3.69305 7.90664 3.53005 8.57764 4.31905C9.00664 4.82405 9.01064 5.19305 8.57564 5.70005C7.87864 6.51105 7.94664 6.33805 7.94064 7.37605C7.93764 7.94605 7.61064 8.27505 7.03965 8.27405C5.99565 8.27205 6.13664 8.24205 5.38164 8.90105C5.12164 9.12805 4.85164 9.30505 4.49064 9.21005C4.36065 9.17605 4.23464 9.10805 4.12264 9.03205C3.99764 8.94805 3.88164 8.84505 3.77665 8.73705C3.43765 8.39105 3.04864 8.19205 2.54964 8.27305L2.55064 8.26905ZM4.15264 5.59005C3.88164 5.31205 3.63764 5.05305 3.38464 4.80205C3.22864 4.64805 3.04364 4.64505 2.91164 4.77905C2.78564 4.90605 2.78764 5.09205 2.93164 5.23905C3.25964 5.57405 3.59165 5.90605 3.92764 6.23305C4.07364 6.37605 4.24165 6.38105 4.38565 6.23905C5.06665 5.56505 5.74464 4.88905 6.41564 4.20405C6.47864 4.14005 6.51964 4.00505 6.49764 3.92105C6.47464 3.82905 6.37464 3.70405 6.29464 3.69305C6.18364 3.67705 6.02664 3.72005 5.94664 3.79705C5.34964 4.37705 4.76764 4.97205 4.15264 5.59005Z" fill="#B4F34C"/>
</svg>
