<svg width="16" height="22" viewBox="0 0 16 22" fill="none" xmlns="http://www.w3.org/2000/svg">
<path d="M8.0969 0.339844C4.0227 0.339844 0.720703 3.36624 0.720703 7.43784C0.720703 10.7034 5.4605 18.428 7.3403 21.132C7.7069 21.6598 8.4843 21.6598 8.8509 21.132C10.7307 18.428 15.4705 10.7034 15.4705 7.43784C15.4705 3.36364 12.1685 0.339844 8.0943 0.339844H8.0969ZM8.0969 11.304C5.8557 11.304 4.0409 9.48664 4.0409 7.24804C4.0409 5.00944 5.8583 3.19204 8.0969 3.19204C10.3355 3.19204 12.1529 5.00944 12.1529 7.24804C12.1529 9.48664 10.3355 11.304 8.0969 11.304Z" fill="#B4F34C"/>
</svg>
