<svg width="80" height="80" viewBox="0 0 80 80" fill="none" xmlns="http://www.w3.org/2000/svg">
<path d="M40.0001 0.319946C18.1201 0.319946 0.320068 18.1199 0.320068 39.9999C0.320068 61.8799 18.1201 79.6799 40.0001 79.6799C61.8801 79.6799 79.6801 61.8799 79.6801 39.9999C79.6801 18.1199 61.8801 0.319946 40.0001 0.319946ZM16.3401 65.3099L26.7801 56.36C27.9801 55.33 29.4001 54.7899 30.8801 54.7899H49.1201C50.6001 54.7899 52.0201 55.33 53.2201 56.36L63.6601 65.3099C57.4601 71.1099 49.1401 74.67 40.0001 74.67C30.8601 74.67 22.5401 71.1099 16.3401 65.3099ZM67.0601 61.64L56.4701 52.5599C54.3801 50.7699 51.7701 49.7799 49.1101 49.7799H30.8701C28.2101 49.7799 25.6001 50.7699 23.5101 52.5599L12.9201 61.64C8.16007 55.7 5.31007 48.1799 5.31007 39.9999C5.31007 20.8799 20.8701 5.31995 39.9901 5.31995C59.1101 5.31995 74.6701 20.8799 74.6701 39.9999C74.6701 48.1799 71.8101 55.71 67.0601 61.64Z" fill="#626262"/>
<path d="M40.0001 14.84C31.8001 14.84 25.1301 21.51 25.1301 29.71C25.1301 37.91 31.8001 44.58 40.0001 44.58C48.2001 44.58 54.8701 37.91 54.8701 29.71C54.8701 21.51 48.2001 14.84 40.0001 14.84ZM40.0001 39.58C34.5601 39.58 30.1301 35.15 30.1301 29.71C30.1301 24.27 34.5601 19.84 40.0001 19.84C45.4401 19.84 49.8701 24.27 49.8701 29.71C49.8701 35.15 45.4401 39.58 40.0001 39.58Z" fill="#626262"/>
</svg>
