<svg width="80" height="80" viewBox="0 0 80 80" fill="none" xmlns="http://www.w3.org/2000/svg">
<path d="M39.9998 0.319946C18.1198 0.319946 0.319824 18.1199 0.319824 39.9999C0.319824 61.8799 18.1198 79.6799 39.9998 79.6799C61.8798 79.6799 79.6798 61.8799 79.6798 39.9999C79.6798 18.1199 61.8798 0.319946 39.9998 0.319946ZM40.1498 14.8499C48.3498 14.8499 55.0198 21.5199 55.0198 29.7199C55.0198 37.9199 48.3498 44.5899 40.1498 44.5899C31.9498 44.5899 25.2798 37.9199 25.2798 29.7199C25.2798 21.5199 31.9498 14.8499 40.1498 14.8499ZM62.9698 69.6299L55.4798 74.9099L44.4698 76.5599L29.3898 74.7999L15.3498 66.1599L13.6098 64.1299L12.0898 62.36L23.5198 52.5599C25.6098 50.7699 28.2198 49.7799 30.8798 49.7799H49.1198C51.7798 49.7799 54.3898 50.7699 56.4798 52.5599L67.9098 62.36L62.9598 69.6199L62.9698 69.6299Z" fill="#B4F34C"/>
<path d="M39.9998 79.6799C18.1198 79.6799 0.319824 61.8799 0.319824 39.9999C0.319824 18.1199 18.1198 0.319946 39.9998 0.319946C61.8798 0.319946 79.6798 18.1199 79.6798 39.9999C79.6798 61.8799 61.8798 79.6799 39.9998 79.6799ZM39.9998 5.31995C20.8798 5.31995 5.31982 20.8799 5.31982 39.9999C5.31982 59.1199 20.8798 74.6799 39.9998 74.6799C59.1198 74.6799 74.6798 59.1199 74.6798 39.9999C74.6798 20.8799 59.1198 5.31995 39.9998 5.31995Z" fill="#B4F34C"/>
</svg>
