<svg width="24" height="24" viewBox="0 0 24 24" fill="none" xmlns="http://www.w3.org/2000/svg">
<path d="M22.506 10.92H12.873V1.28703C12.873 0.690031 12.387 0.207031 11.793 0.207031C11.199 0.207031 10.713 0.693031 10.713 1.28703V10.92H1.08C0.483 10.92 0 11.406 0 12C0 12.594 0.486 13.08 1.08 13.08H10.713V22.713C10.713 23.31 11.199 23.793 11.793 23.793C12.387 23.793 12.873 23.307 12.873 22.713V13.08H22.506C23.103 13.08 23.586 12.594 23.586 12C23.586 11.406 23.1 10.92 22.506 10.92Z" fill="white"/>
</svg>
