<svg width="12" height="12" viewBox="0 0 12 12" fill="none" xmlns="http://www.w3.org/2000/svg">
<path d="M6.50182 1.00912L7.78842 3.61732C7.89342 3.83012 8.09642 3.97712 8.33022 4.01072L11.2072 4.42932C11.6664 4.49652 11.8498 5.06072 11.518 5.38412L9.43622 7.41412C9.26682 7.57932 9.18842 7.81732 9.22902 8.05112L9.72042 10.9169C9.79882 11.3747 9.31862 11.7233 8.90842 11.5077L6.33522 10.1539C6.12522 10.0433 5.87462 10.0433 5.66462 10.1539L3.09142 11.5077C2.68122 11.7233 2.20102 11.3747 2.27942 10.9169L2.77082 8.05112C2.81142 7.81732 2.73302 7.57932 2.56362 7.41412L0.481819 5.38412C0.150019 5.06072 0.333419 4.49512 0.792619 4.42932L3.66962 4.01072C3.90482 3.97712 4.10642 3.82872 4.21142 3.61732L5.49802 1.00912C5.70382 0.593316 6.29742 0.593316 6.50182 1.00912Z" fill="#B4F34C"/>
</svg>
