<svg width="24" height="24" viewBox="0 0 24 24" fill="none" xmlns="http://www.w3.org/2000/svg">
<path d="M21.3696 1.899H18.8766V0.75C18.8766 0.336 18.5406 0 18.1266 0C17.7126 0 17.3766 0.336 17.3766 0.75V1.899H6.54064V0.75C6.54064 0.336 6.20464 0 5.79064 0C5.37664 0 5.04064 0.336 5.04064 0.75V1.899H2.63164C1.55764 1.899 0.681641 2.775 0.681641 3.849V22.032C0.681641 23.106 1.55764 23.982 2.63164 23.982H21.3696C22.4436 23.982 23.3196 23.106 23.3196 22.032V3.849C23.3196 2.775 22.4436 1.899 21.3696 1.899ZM2.63164 3.399H5.04064V4.548C5.04064 4.962 5.37664 5.298 5.79064 5.298C6.20464 5.298 6.54064 4.962 6.54064 4.548V3.399H17.3766V4.548C17.3766 4.962 17.7126 5.298 18.1266 5.298C18.5406 5.298 18.8766 4.962 18.8766 4.548V3.399H21.3696C21.6186 3.399 21.8196 3.6 21.8196 3.849V7.116H2.18164V3.849C2.18164 3.6 2.38264 3.399 2.63164 3.399ZM21.3696 22.482H2.63164C2.38264 22.482 2.18164 22.281 2.18164 22.032V8.616H21.8196V22.032C21.8196 22.281 21.6186 22.482 21.3696 22.482Z" fill="#2F2F2F"/>
</svg>
