<svg width="17" height="17" viewBox="0 0 17 17" fill="none" xmlns="http://www.w3.org/2000/svg">
<g clip-path="url(#clip0_2612_11272)">
<path d="M3.98307 17C2.4071 16.9093 1.09062 16.1193 0.388336 14.5036C-0.321089 12.8711 -0.0449369 11.3318 1.14537 10.0048C1.80957 9.26492 2.53803 8.58473 3.24746 7.88545C3.64502 7.49404 4.23542 7.49882 4.60917 7.87113C4.99483 8.25299 4.99245 8.83772 4.58537 9.25299C3.93784 9.91409 3.28079 10.5633 2.6285 11.222C2.00478 11.852 1.79528 12.611 2.0381 13.4606C2.28093 14.3127 2.86656 14.8473 3.73311 15.0263C4.49014 15.1814 5.17576 14.9881 5.73044 14.4415C6.7803 13.4057 7.82301 12.3628 8.8562 11.3103C9.72036 10.4296 9.7275 9.10263 8.88953 8.18855C8.47054 7.73032 8.46816 7.14798 8.88 6.76612C9.29423 6.38426 9.88224 6.43199 10.2941 6.88068C11.8224 8.54416 11.8105 11.0072 10.2393 12.6372C9.19901 13.7184 8.13011 14.7733 7.05883 15.8258C6.25656 16.6134 5.27575 16.9905 3.98069 17.0024L3.98307 17Z" fill="#2F2F2F"/>
<path d="M12.9844 0C14.5604 0.0787589 15.8768 0.856802 16.5934 2.45346C17.3076 4.04296 17.0791 5.57279 15.9364 6.89976C15.3007 7.63723 14.5794 8.30549 13.8795 8.98568C13.4938 9.36038 12.9106 9.32936 12.5392 8.94988C12.175 8.57995 12.1726 7.99761 12.5559 7.6062C13.1534 6.99523 13.7629 6.39618 14.3651 5.78759C14.996 5.15036 15.2079 4.38425 14.9579 3.52745C14.7127 2.68974 14.1342 2.1599 13.2772 1.97852C12.5083 1.81623 11.8203 2.01432 11.2584 2.56802C10.2157 3.59666 9.18016 4.63484 8.15173 5.68019C7.27805 6.56802 7.26853 7.90453 8.11603 8.821C8.52311 9.26253 8.53025 9.84725 8.13031 10.2243C7.71608 10.6134 7.12807 10.5752 6.71384 10.1337C5.17358 8.47971 5.1831 5.99284 6.76383 4.358C7.80655 3.27924 8.87306 2.22196 9.94434 1.17184C10.7395 0.391408 11.7131 0.0190931 12.9844 0Z" fill="#2F2F2F"/>
</g>
<defs>
<clipPath id="clip0_2612_11272">
<rect width="17" height="17" fill="white"/>
</clipPath>
</defs>
</svg>
