<svg width="37" height="18" viewBox="0 0 42 18" fill="none" xmlns="http://www.w3.org/2000/svg">
    <rect x="5.2207" y="0.5" width="36" height="17" rx="4" fill="#B4F34C"/>
    <path d="M5 9 L0 6 L5 12 Z" fill="#B4F34C"/>
    <path d="M15.2707 11.44L15.2707 9.74H13.6407V8.8H15.2707V7.09H16.2807V8.8H17.9207V9.74H16.2807L16.2807 11.44H15.2707ZM21.4946 12.59V11.87L22.8046 10.49C23.3846 9.87667 23.8146 9.37 24.0946 8.97C24.3746 8.56333 24.5146 8.16667 24.5146 7.78C24.5146 7.37333 24.4046 7.08 24.1846 6.9C23.9713 6.72 23.6413 6.63 23.1946 6.63C22.7546 6.63 22.2813 6.78333 21.7746 7.09L21.5746 6.18C22.1679 5.83333 22.8179 5.66 23.5246 5.66C24.2646 5.66 24.8279 5.83 25.2146 6.17C25.6013 6.51 25.7946 6.99333 25.7946 7.62C25.7946 7.90667 25.7413 8.19667 25.6346 8.49C25.5346 8.77667 25.3746 9.07 25.1546 9.37C24.9346 9.66333 24.7413 9.90333 24.5746 10.09C24.4146 10.27 24.1946 10.5067 23.9146 10.8L23.1046 11.63H25.8546V12.59H21.4946ZM27.1362 12.59V5.73H29.5362C30.3362 5.73 30.9395 5.91 31.3462 6.27C31.7528 6.63 31.9562 7.15333 31.9562 7.84C31.9562 8.54 31.7462 9.08 31.3262 9.46C30.9128 9.83333 30.3428 10.02 29.6162 10.02H28.3662V12.59H27.1362ZM28.3662 9.1H29.3862C29.8395 9.1 30.1662 9.00333 30.3662 8.81C30.5662 8.61667 30.6662 8.31667 30.6662 7.91C30.6662 7.46333 30.5695 7.14667 30.3762 6.96C30.1828 6.77333 29.8595 6.68 29.4062 6.68H28.3662V9.1Z" fill="#373737"/>
</svg>
