<svg width="74" height="14" viewBox="0 0 74 14" fill="none" xmlns="http://www.w3.org/2000/svg">
<path d="M7.50182 1.87484L8.78842 4.48304C8.89342 4.69584 9.09642 4.84284 9.33022 4.87644L12.2072 5.29504C12.6664 5.36224 12.8498 5.92644 12.518 6.24984L10.4362 8.27984C10.2668 8.44504 10.1884 8.68304 10.229 8.91684L10.7204 11.7826C10.7988 12.2404 10.3186 12.589 9.90842 12.3734L7.33522 11.0196C7.12522 10.909 6.87462 10.909 6.66462 11.0196L4.09142 12.3734C3.68122 12.589 3.20102 12.2404 3.27942 11.7826L3.77082 8.91684C3.81142 8.68304 3.73302 8.44504 3.56362 8.27984L1.48182 6.24984C1.15002 5.92644 1.33342 5.36084 1.79262 5.29504L4.66962 4.87644C4.90482 4.84284 5.10642 4.69444 5.21142 4.48304L6.49802 1.87484C6.70382 1.45904 7.29742 1.45904 7.50182 1.87484Z" fill="#FFE91E"/>
<path d="M22.5018 1.87484L23.7884 4.48304C23.8934 4.69584 24.0964 4.84284 24.3302 4.87644L27.2072 5.29504C27.6664 5.36224 27.8498 5.92644 27.518 6.24984L25.4362 8.27984C25.2668 8.44504 25.1884 8.68304 25.229 8.91684L25.7204 11.7826C25.7988 12.2404 25.3186 12.589 24.9084 12.3734L22.3352 11.0196C22.1252 10.909 21.8746 10.909 21.6646 11.0196L19.0914 12.3734C18.6812 12.589 18.201 12.2404 18.2794 11.7826L18.7708 8.91684C18.8114 8.68304 18.733 8.44504 18.5636 8.27984L16.4818 6.24984C16.15 5.92644 16.3334 5.36084 16.7926 5.29504L19.6696 4.87644C19.9048 4.84284 20.1064 4.69444 20.2114 4.48304L21.498 1.87484C21.7038 1.45904 22.2974 1.45904 22.5018 1.87484Z" fill="#FFE91E"/>
<path d="M37.5018 1.87484L38.7884 4.48304C38.8934 4.69584 39.0964 4.84284 39.3302 4.87644L42.2072 5.29504C42.6664 5.36224 42.8498 5.92644 42.518 6.24984L40.4362 8.27984C40.2668 8.44504 40.1884 8.68304 40.229 8.91684L40.7204 11.7826C40.7988 12.2404 40.3186 12.589 39.9084 12.3734L37.3352 11.0196C37.1252 10.909 36.8746 10.909 36.6646 11.0196L34.0914 12.3734C33.6812 12.589 33.201 12.2404 33.2794 11.7826L33.7708 8.91684C33.8114 8.68304 33.733 8.44504 33.5636 8.27984L31.4818 6.24984C31.15 5.92644 31.3334 5.36084 31.7926 5.29504L34.6696 4.87644C34.9048 4.84284 35.1064 4.69444 35.2114 4.48304L36.498 1.87484C36.7038 1.45904 37.2974 1.45904 37.5018 1.87484Z" fill="#FFE91E"/>
<path d="M52.5018 1.87484L53.7884 4.48304C53.8934 4.69584 54.0964 4.84284 54.3302 4.87644L57.2072 5.29504C57.6664 5.36224 57.8498 5.92644 57.518 6.24984L55.4362 8.27984C55.2668 8.44504 55.1884 8.68304 55.229 8.91684L55.7204 11.7826C55.7988 12.2404 55.3186 12.589 54.9084 12.3734L52.3352 11.0196C52.1252 10.909 51.8746 10.909 51.6646 11.0196L49.0914 12.3734C48.6812 12.589 48.201 12.2404 48.2794 11.7826L48.7708 8.91684C48.8114 8.68304 48.733 8.44504 48.5636 8.27984L46.4818 6.24984C46.15 5.92644 46.3334 5.36084 46.7926 5.29504L49.6696 4.87644C49.9048 4.84284 50.1064 4.69444 50.2114 4.48304L51.498 1.87484C51.7038 1.45904 52.2974 1.45904 52.5018 1.87484Z" fill="#FFE91E"/>
<path d="M67.5018 1.87484L68.7884 4.48304C68.8934 4.69584 69.0964 4.84284 69.3302 4.87644L72.2072 5.29504C72.6664 5.36224 72.8498 5.92644 72.518 6.24984L70.4362 8.27984C70.2668 8.44504 70.1884 8.68304 70.229 8.91684L70.7204 11.7826C70.7988 12.2404 70.3186 12.589 69.9084 12.3734L67.3352 11.0196C67.1252 10.909 66.8746 10.909 66.6646 11.0196L64.0914 12.3734C63.6812 12.589 63.201 12.2404 63.2794 11.7826L63.7708 8.91684C63.8114 8.68304 63.733 8.44504 63.5636 8.27984L61.4818 6.24984C61.15 5.92644 61.3334 5.36084 61.7926 5.29504L64.6696 4.87644C64.9048 4.84284 65.1064 4.69444 65.2114 4.48304L66.498 1.87484C66.7038 1.45904 67.2974 1.45904 67.5018 1.87484Z" fill="#FFE91E"/>
</svg>
