<svg width="84" height="90" viewBox="0 0 84 90" fill="none" xmlns="http://www.w3.org/2000/svg">
<path d="M77.3 89.0401H14.84C11.26 89.0401 8.33997 86.1201 8.33997 82.5401V21.9301C8.33997 18.3501 11.26 15.4301 14.84 15.4301H77.3C80.88 15.4301 83.8 18.3501 83.8 21.9301V82.5401C83.8 86.1201 80.88 89.0401 77.3 89.0401ZM14.84 20.4301C14.01 20.4301 13.34 21.1001 13.34 21.9301V82.5401C13.34 83.3701 14.01 84.0401 14.84 84.0401H77.3C78.13 84.0401 78.8 83.3701 78.8 82.5401V21.9301C78.8 21.1001 78.13 20.4301 77.3 20.4301H14.84Z" fill="#626262"/>
<path d="M69.16 9.78003H6.69995C4.49081 9.78003 2.69995 11.5709 2.69995 13.78V74.39C2.69995 76.5992 4.49081 78.39 6.69995 78.39H69.16C71.3691 78.39 73.16 76.5992 73.16 74.39V13.78C73.16 11.5709 71.3691 9.78003 69.16 9.78003Z" fill="white"/>
<path d="M69.16 80.9H6.69995C3.11995 80.9 0.199951 77.98 0.199951 74.4V13.79C0.199951 10.21 3.11995 7.29004 6.69995 7.29004H69.16C72.74 7.29004 75.66 10.21 75.66 13.79V74.4C75.66 77.98 72.74 80.9 69.16 80.9ZM6.69995 12.28C5.86995 12.28 5.19995 12.95 5.19995 13.78V74.39C5.19995 75.22 5.86995 75.89 6.69995 75.89H69.16C69.99 75.89 70.66 75.22 70.66 74.39V13.78C70.66 12.95 69.99 12.28 69.16 12.28H6.69995Z" fill="#626262"/>
<path d="M17.23 18.6101C15.85 18.6101 14.73 17.4901 14.73 16.1101V3.45007C14.73 2.07007 15.85 0.950073 17.23 0.950073C18.61 0.950073 19.73 2.07007 19.73 3.45007V16.1101C19.73 17.4901 18.61 18.6101 17.23 18.6101Z" fill="#626262"/>
<path d="M58.35 18.6101C56.97 18.6101 55.85 17.4901 55.85 16.1101V3.45007C55.85 2.07007 56.97 0.950073 58.35 0.950073C59.73 0.950073 60.85 2.07007 60.85 3.45007V16.1101C60.85 17.4901 59.73 18.6101 58.35 18.6101Z" fill="#626262"/>
<path d="M37.9299 18.6101C36.5499 18.6101 35.4299 17.4901 35.4299 16.1101V3.45007C35.4299 2.07007 36.5499 0.950073 37.9299 0.950073C39.3099 0.950073 40.4299 2.07007 40.4299 3.45007V16.1101C40.4299 17.4901 39.3099 18.6101 37.9299 18.6101Z" fill="#626262"/>
<path d="M53.75 34.9801L43.36 29.4101C43.03 29.1801 42.83 28.7801 42.83 28.3501C42.83 25.4801 40.68 23.1601 37.91 23.0801C35.17 23.1601 33.03 25.4701 33.03 28.3501C33.03 28.7801 32.83 29.1701 32.5 29.4101L22.11 34.9801C20.48 35.8301 18.63 36.8101 18.63 39.3401V41.5001C18.63 42.0901 18.9 42.4301 19.12 42.6101C19.48 42.9001 20.01 43.0001 20.58 42.8801C23.3 42.2901 26.08 41.7201 28.76 41.1701L29.77 40.9601C30.55 40.8001 31.34 40.6401 32.12 40.4701C32.2 40.4501 32.28 40.4301 32.36 40.4101C32.57 40.3601 32.76 40.3101 32.85 40.3501C32.96 40.4101 33.04 40.5401 33.04 40.6701V62.7101C33.04 63.2601 32.72 63.7401 32.23 63.9201L28.02 65.4201C27.38 65.5901 26.94 66.1701 26.94 66.8501V69.2101C26.94 70.0201 27.58 70.6801 28.41 70.6801L37.93 69.7801L47.51 70.6801C48.3 70.6801 48.94 70.0201 48.94 69.2001V66.8401C48.94 66.1601 48.5 65.5801 47.91 65.4301L43.65 63.9201C43.17 63.7501 42.84 63.2601 42.84 62.7101V40.6701C42.84 40.5301 42.92 40.4001 43.03 40.3501C43.12 40.3001 43.32 40.3501 43.52 40.4101C43.6 40.4301 43.68 40.4501 43.76 40.4701C44.54 40.6301 45.33 40.7901 46.11 40.9601L47.1 41.1601C49.79 41.7101 52.57 42.2801 55.3 42.8801C55.86 43.0001 56.4 42.9001 56.76 42.6101C56.98 42.4301 57.25 42.0901 57.25 41.5001V39.3401C57.25 36.8001 55.4 35.8301 53.77 34.9801H53.75Z" fill="#626262"/>
</svg>
