<svg width="169" height="31" viewBox="0 0 169 31" fill="none" xmlns="http://www.w3.org/2000/svg">
<path d="M156.969 20.4766C156.969 16.8226 159.412 14.2197 163.015 14.2197C165.957 14.2197 168.999 16.0718 168.999 20.0887C168.999 20.5267 168.962 21.0022 168.887 21.4902H160.809C160.971 22.7917 162.217 23.4048 163.452 23.4048C164.524 23.4048 165.484 22.7291 166.132 21.9157L168.625 24.1181C167.715 25.5697 165.833 26.7335 163.402 26.7335C159.599 26.7335 156.969 24.1306 156.969 20.4766ZM163.127 17.3231C161.756 17.3231 160.946 18.1866 160.809 19.1752H165.371C165.334 18.2366 164.387 17.3231 163.127 17.3231Z" fill="white"/>
<path d="M146.745 26.7342C144.51 26.7342 142.361 25.1654 142.361 22.3366V14.5049H146.251V21.2249C146.251 22.5466 147.301 23.1766 148.24 23.1766C149.215 23.1766 150.215 22.5466 150.215 21.2249V14.5049H154.105V26.3637H150.536L150.413 25.2395C149.573 26.3019 148.141 26.7342 146.745 26.7342Z" fill="white"/>
<path d="M135.774 26.4491H131.764V14.4693H135.545L135.672 16.104C136.245 14.9185 137.454 14.2197 138.867 14.2197C139.351 14.2197 139.848 14.3071 140.357 14.4693L140.115 17.901C139.606 17.7263 139.084 17.639 138.575 17.639C137.06 17.639 135.774 18.4501 135.774 20.6838V26.4491Z" fill="white"/>
<path d="M118.014 12.9418V9.38574H132.336V12.9418H127.258V26.45H123.104V12.9418H118.014Z" fill="white"/>
<path d="M107.416 20.4766C107.416 16.8226 109.86 14.2197 113.462 14.2197C116.405 14.2197 119.447 16.0718 119.447 20.0887C119.447 20.5267 119.409 21.0022 119.334 21.4902H111.256C111.418 22.7917 112.665 23.4048 113.899 23.4048C114.971 23.4048 115.931 22.7291 116.579 21.9157L119.073 24.1181C118.162 25.5697 116.28 26.7335 113.849 26.7335C110.047 26.7335 107.416 24.1306 107.416 20.4766ZM113.575 17.3231C112.203 17.3231 111.393 18.1866 111.256 19.1752H115.819C115.781 18.2366 114.834 17.3231 113.575 17.3231Z" fill="white"/>
<path d="M84.7871 26.4491V14.4693H88.4523L88.5791 15.7297C89.4415 14.6565 90.9127 14.2197 92.3458 14.2197C93.9692 14.2197 95.5291 14.8936 96.1759 16.2164C97.1651 14.8437 98.7377 14.2197 100.272 14.2197C102.619 14.2197 104.838 15.7422 104.838 18.6622V26.4491H100.843V19.7853C100.843 18.4501 99.8538 17.8137 98.8519 17.8137C97.85 17.8137 96.7973 18.4501 96.7973 19.7853V26.4491H92.8024V19.7853C92.8024 18.4501 91.7751 17.8137 90.8112 17.8137C89.8093 17.8137 88.7821 18.4501 88.7821 19.7853V26.4491H84.7871Z" fill="white"/>
<path d="M69.0312 20.4766C69.0312 16.8977 71.8274 14.2197 75.6194 14.2197C79.4114 14.2197 82.2075 16.8977 82.2075 20.4766C82.2075 24.0555 79.4114 26.7335 75.6194 26.7335C71.8274 26.7335 69.0312 24.0555 69.0312 20.4766ZM73.0148 20.4766C73.0148 22.0033 74.0873 23.142 75.6194 23.142C77.1515 23.142 78.224 22.0033 78.224 20.4766C78.224 18.9875 77.1515 17.8487 75.6194 17.8487C74.0873 17.8487 73.0148 18.9875 73.0148 20.4766Z" fill="white"/>
<path d="M60.1049 26.7336C54.9725 26.7336 50.9863 22.9497 50.9863 17.9045C50.9863 12.8593 54.9725 9.10059 60.1049 9.10059C63.1742 9.10059 66.2435 10.7655 67.8227 13.3764L64.6006 15.735C63.5435 14.1458 62.2318 12.9854 60.1049 12.9854C57.1885 12.9854 55.2782 15.0539 55.2782 17.9045C55.2782 20.755 57.1885 22.8488 60.1049 22.8488C62.028 22.8488 63.4798 21.9154 64.677 20.1244L67.8863 22.4452C66.2435 25.1444 63.378 26.7336 60.1049 26.7336Z" fill="white"/>
<path d="M24.8808 14.2221C23.7063 14.2221 22.6832 14.6936 22.0155 15.5137L22.0035 14.4699H17.7598V27.0179H22.2797V20.8605C22.2797 19.0205 23.0603 18.0873 24.5974 18.0873C25.0705 18.0873 25.5436 18.1691 26.0095 18.3326L26.3266 18.4433L26.353 14.5348L26.1849 14.4795C25.6877 14.3183 25.3875 14.2197 24.8808 14.2197V14.2221Z" fill="white"/>
<path d="M32.3669 14.2197H28.0703V26.7335H32.3669V14.2197Z" fill="white"/>
<path d="M30.2076 8.53223C28.7807 8.53223 27.7852 9.52814 27.7852 10.9558C27.7852 12.3834 28.7807 13.3671 30.2076 13.3671C31.6344 13.3671 32.6546 12.3761 32.6546 10.9558C32.6546 9.5355 31.6492 8.53223 30.2076 8.53223Z" fill="white"/>
<path d="M42.3168 14.2197C40.9016 14.2197 39.767 14.5984 38.9397 15.3462L38.9348 14.4666H34.6602V30.9995H39.213V26.1533C40.0017 26.7045 41.0831 27.0041 42.3168 27.0041C45.7351 27.0041 48.1229 24.3844 48.1229 20.6359C48.1229 16.8873 45.7351 14.2197 42.3168 14.2197ZM43.703 20.6119C43.703 22.0284 42.6967 23.0542 41.3129 23.0542C39.9291 23.0542 39.0074 22.05 39.0074 20.6119C39.0074 19.1739 39.9557 18.1696 41.3129 18.1696C42.7426 18.1696 43.703 19.1523 43.703 20.6119Z" fill="white"/>
<path d="M15.3752 11.6597L10.8251 9.26376C10.6811 9.16283 10.5933 8.99221 10.5933 8.80717C10.5933 7.57196 9.65401 6.57466 8.44146 6.54102C7.24355 6.57466 6.30426 7.56956 6.30426 8.80717C6.30426 8.99221 6.21887 9.16043 6.07248 9.26376L1.52239 11.6597C0.80755 12.0274 0 12.4455 0 13.5365V14.4665C0 14.7189 0.117107 14.8655 0.214696 14.9424C0.373278 15.0673 0.605053 15.1106 0.853905 15.0577C2.04449 14.8054 3.25948 14.5603 4.43299 14.3223L4.87702 14.2334C5.21858 14.1637 5.56258 14.0941 5.90414 14.0244C5.9383 14.0172 5.9749 14.0075 6.00905 14.0003C6.09932 13.9787 6.18227 13.9571 6.22375 13.9763C6.27254 14.0003 6.3067 14.058 6.3067 14.1157V23.5936C6.3067 23.8291 6.16519 24.0382 5.95294 24.1127L4.1085 24.7567C3.83037 24.8288 3.63763 25.0812 3.63763 25.3719V26.3861C3.63763 26.7345 3.91576 27.0181 4.28172 27.0181L8.44878 26.6312L12.6402 27.0181C12.9842 27.0181 13.2648 26.7345 13.2648 26.3837V25.3695C13.2648 25.0788 13.0721 24.8264 12.8135 24.7615L10.9495 24.1127C10.7372 24.0382 10.5957 23.8291 10.5957 23.5936V14.1157C10.5957 14.0556 10.6299 14.0003 10.6787 13.9763C10.7202 13.9547 10.8056 13.9763 10.8934 14.0003C10.93 14.0099 10.9641 14.0172 10.9983 14.0244C11.3399 14.0941 11.6839 14.1637 12.0254 14.2334L12.4573 14.3199C13.6356 14.5579 14.8531 14.803 16.0461 15.0577C16.2925 15.1106 16.5267 15.0673 16.6853 14.9424C16.7829 14.8655 16.9 14.7189 16.9 14.4665V13.5365C16.9 12.4455 16.09 12.0274 15.3776 11.6597H15.3752Z" fill="white"/>
<path d="M39.7839 5.96671C38.5024 5.81261 37.3438 5.67074 36.2023 5.53377C36.055 5.51664 36.055 5.3014 36.2023 5.28428L39.8084 4.86356C39.8992 4.85378 39.9483 4.75349 39.9042 4.67522L38.9517 3.02662C38.8879 2.91655 39.0106 2.7918 39.1235 2.85295L40.8002 3.7702C40.8787 3.81423 40.9769 3.76286 40.9867 3.67481L41.4139 0.110989C41.4311 -0.0357708 41.6471 -0.0382168 41.6643 0.110989C41.8067 1.26305 41.949 2.42735 42.1012 3.67725C42.1111 3.76776 42.2117 3.81668 42.2903 3.77509L43.9448 2.8554C44.0553 2.79425 44.178 2.91655 44.1167 3.02907C43.7902 3.60632 43.5177 4.08818 43.1961 4.65565C43.1519 4.73393 43.2035 4.83421 43.2918 4.844C44.5389 4.99809 45.7074 5.14485 46.8661 5.28917C47.0134 5.30874 47.0134 5.52154 46.8661 5.53866C45.7344 5.67319 44.5831 5.81261 43.2845 5.96915C43.1936 5.97894 43.1421 6.07923 43.1887 6.15994C43.5005 6.70295 43.7902 7.21172 44.151 7.84279C44.2149 7.95531 44.0897 8.07761 43.9767 8.01401C43.3532 7.65445 42.85 7.36582 42.3001 7.05029C42.2215 7.00381 42.1209 7.05518 42.1086 7.14568C41.9539 8.39803 41.8116 9.55254 41.6716 10.6973C41.6545 10.844 41.4384 10.844 41.4212 10.6973C41.2813 9.55988 41.1389 8.40781 40.9843 7.14323C40.972 7.05273 40.8738 7.00137 40.7928 7.04784C40.2527 7.35848 39.7569 7.64466 39.1481 7.99444C39.0376 8.05804 38.9124 7.93574 38.9738 7.82567C39.3027 7.22395 39.5752 6.72008 39.8845 6.15505C39.9263 6.07678 39.8747 5.97894 39.7863 5.96915L39.7839 5.96671Z" fill="#B4F34C"/>
</svg>
