<svg width="84" height="90" viewBox="0 0 84 90" fill="none" xmlns="http://www.w3.org/2000/svg">
<path d="M77.3 89.0401H14.84C11.26 89.0401 8.33997 86.1201 8.33997 82.5401V21.9301C8.33997 18.3501 11.26 15.4301 14.84 15.4301H77.3C80.88 15.4301 83.8 18.3501 83.8 21.9301V82.5401C83.8 86.1201 80.88 89.0401 77.3 89.0401ZM14.85 20.4301C14.02 20.4301 13.35 21.1001 13.35 21.9301V82.5401C13.35 83.3701 14.02 84.0401 14.85 84.0401H77.31C78.14 84.0401 78.81 83.3701 78.81 82.5401V21.9301C78.81 21.1001 78.14 20.4301 77.31 20.4301H14.85Z" fill="#B4F34C"/>
<path d="M69.16 7.28007H60.85V3.45007C60.85 2.07007 59.73 0.950073 58.35 0.950073C56.97 0.950073 55.85 2.07007 55.85 3.45007V7.28007H40.43V3.45007C40.43 2.07007 39.31 0.950073 37.93 0.950073C36.55 0.950073 35.43 2.07007 35.43 3.45007V7.28007H19.73V3.45007C19.73 2.07007 18.61 0.950073 17.23 0.950073C15.85 0.950073 14.73 2.07007 14.73 3.45007V7.28007H6.69995C3.11995 7.28007 0.199951 10.2001 0.199951 13.7801V74.3901C0.199951 77.9701 3.11995 80.8901 6.69995 80.8901H69.16C72.74 80.8901 75.66 77.9701 75.66 74.3901V13.7801C75.66 10.2001 72.74 7.28007 69.16 7.28007ZM57.24 41.5101C57.24 42.1001 56.9699 42.4401 56.7499 42.6201C56.3899 42.9101 55.85 43.0101 55.29 42.8901C52.56 42.3001 49.78 41.7301 47.09 41.1701L46.1 40.9701C45.32 40.8101 44.5299 40.6501 43.7499 40.4801C43.6699 40.4601 43.59 40.4501 43.51 40.4201C43.31 40.3601 43.11 40.3101 43.02 40.3601C42.91 40.4201 42.8299 40.5401 42.8299 40.6801V62.7201C42.8299 63.2701 43.1499 63.7501 43.6399 63.9301L47.9 65.4401C48.49 65.5901 48.93 66.1801 48.93 66.8501V69.2101C48.93 70.0301 48.2899 70.6901 47.4999 70.6901L37.9199 69.7901L28.4 70.6901C27.56 70.6901 26.93 70.0301 26.93 69.2201V66.8601C26.93 66.1801 27.37 65.6001 28.01 65.4301L32.2199 63.9301C32.6999 63.7601 33.0299 63.2701 33.0299 62.7201V40.6801C33.0299 40.5501 32.95 40.4101 32.84 40.3601C32.75 40.3101 32.56 40.3601 32.35 40.4201C32.27 40.4401 32.1899 40.4601 32.1099 40.4801C31.3299 40.6401 30.54 40.8001 29.76 40.9701L28.7499 41.1801C26.0699 41.7301 23.29 42.3001 20.57 42.8901C20 43.0101 19.4699 42.9101 19.1099 42.6201C18.8899 42.4401 18.62 42.1001 18.62 41.5101V39.3501C18.62 36.8101 20.46 35.8401 22.1 34.9901L32.49 29.4201C32.82 29.1801 33.02 28.7901 33.02 28.3601C33.02 25.4801 35.17 23.1701 37.9 23.0901C40.67 23.1701 42.82 25.4901 42.82 28.3601C42.82 28.7901 43.02 29.1901 43.35 29.4201L53.74 34.9901C55.37 35.8401 57.2199 36.8201 57.2199 39.3501V41.5101H57.24Z" fill="#B4F34C"/>
</svg>
