<svg width="22" height="22" viewBox="0 0 22 22" fill="none" xmlns="http://www.w3.org/2000/svg">
<path d="M21.0613 3.82791L17.8033 0.569914C17.4913 0.257914 17.0773 0.0869141 16.6363 0.0869141C16.1953 0.0869141 15.7813 0.257914 15.4693 0.569914L2.32328 13.7159C2.13428 13.9049 1.99328 14.1389 1.91228 14.3969L0.526281 18.8909C0.349281 19.4639 0.499281 20.0909 0.913281 20.5229C1.22828 20.8499 1.66028 21.0269 2.10128 21.0269C2.24228 21.0269 2.38628 21.0089 2.52728 20.9699L7.18628 19.7219C7.46528 19.6469 7.72028 19.4999 7.92428 19.2959L21.0583 6.16191C21.3703 5.84991 21.5413 5.43591 21.5413 4.99491C21.5413 4.55391 21.3703 4.13991 21.0583 3.82791H21.0613ZM2.14328 19.5209C2.08628 19.5359 2.03828 19.5209 1.99628 19.4789C1.95428 19.4369 1.94228 19.3859 1.96028 19.3319L2.99528 15.9839L5.60528 18.5939L2.14328 19.5209ZM7.11728 17.9849L3.64628 14.5139L13.6963 4.46691L17.1673 7.93791L7.12028 17.9849H7.11728ZM20.0023 5.10291L18.2263 6.87891L14.7553 3.40791L16.5313 1.63191C16.6033 1.55991 16.6693 1.55991 16.7443 1.63191L20.0023 4.88991C20.0383 4.92591 20.0473 4.96791 20.0473 4.99491C20.0473 5.02191 20.0383 5.06391 20.0023 5.09991V5.10291Z" fill="#2F2F2F"/>
</svg>
