<svg width="24" height="24" viewBox="0 0 24 24" fill="none" xmlns="http://www.w3.org/2000/svg">
<path d="M20.049 5.46241L17.4426 2.85601C17.193 2.60641 16.8618 2.46961 16.509 2.46961C16.1562 2.46961 15.825 2.60641 15.5754 2.85601L5.05862 13.3728C4.90742 13.524 4.79462 13.7112 4.72982 13.9176L3.62102 17.5128C3.47942 17.9712 3.59942 18.4728 3.93062 18.8184C4.18262 19.08 4.52822 19.2216 4.88102 19.2216C4.99382 19.2216 5.10902 19.2072 5.22182 19.176L8.94903 18.1776C9.17222 18.1176 9.37622 18 9.53942 17.8368L20.0466 7.32961C20.2962 7.08001 20.433 6.74881 20.433 6.39601C20.433 6.04321 20.2962 5.71201 20.0466 5.46241H20.049ZM4.91462 18.0168C4.86902 18.0288 4.83062 18.0168 4.79702 17.9832C4.76342 17.9496 4.75383 17.9088 4.76823 17.8656L5.59622 15.1872L7.68423 17.2752L4.91462 18.0168ZM8.89383 16.788L6.11702 14.0112L14.157 5.97361L16.9338 8.75041L8.89622 16.788H8.89383ZM19.2018 6.48241L17.781 7.90321L15.0042 5.12641L16.425 3.70561C16.4826 3.64801 16.5354 3.64801 16.5954 3.70561L19.2018 6.31201C19.2306 6.34081 19.2378 6.37441 19.2378 6.39601C19.2378 6.41761 19.2306 6.45121 19.2018 6.48001V6.48241Z" fill="#373737"/>
<path d="M20.2914 21.5304H3.70742C3.37622 21.5304 3.10742 21.2616 3.10742 20.9304C3.10742 20.5992 3.37622 20.3304 3.70742 20.3304H20.2938C20.625 20.3304 20.8938 20.5992 20.8938 20.9304C20.8938 21.2616 20.625 21.5304 20.2938 21.5304H20.2914Z" fill="#373737"/>
</svg>
