<svg width="21" height="20" viewBox="0 0 21 20" fill="none" xmlns="http://www.w3.org/2000/svg">
<path d="M8.57626 6.04688L6.26441 11.1236L4.1244 6.04688H2L5.15926 13.5994L3.33165 17.3171H5.60054L10.6499 6.04688H8.57626Z" fill="white"/>
<path d="M19.152 10.3503C19.152 7.78855 17.3712 6 15.1063 6C12.8413 6 10.9941 7.83932 10.9941 10.1043C10.9941 12.3693 12.8335 14.2086 15.1063 14.2086C15.9693 14.2086 16.7698 13.8298 17.3869 13.2089V14.0251H19.1559V10.3503H19.152ZM15.1531 12.1545C13.9972 12.1545 13.06 11.2173 13.06 10.0653C13.06 8.91323 13.9972 7.976 15.1531 7.976C16.309 7.976 17.2463 8.91323 17.2463 10.0653C17.2463 11.2173 16.309 12.1545 15.1531 12.1545Z" fill="white"/>
</svg>
