<svg width="100" height="100" viewBox="0 0 100 100" fill="none" xmlns="http://www.w3.org/2000/svg">
<path d="M72.2999 13.39V84.61L56.45 69.54C54.7 67.88 52.4199 66.97 50.0099 66.97C47.5999 66.97 45.3099 67.88 43.5699 69.54L27.7199 84.61V13.39H72.3099M73.6699 8.39001H26.3299C24.3299 8.39001 22.7 10.34 22.7 12.74V87.26C22.7 89.84 24.47 91.62 26.34 91.62C27.1 91.62 27.8899 91.33 28.5799 90.67L46.9999 73.16C47.8399 72.36 48.9199 71.96 49.9999 71.96C51.0799 71.96 52.1599 72.36 52.9999 73.16L71.4199 90.67C72.1099 91.32 72.8899 91.62 73.6599 91.62C75.5399 91.62 77.2999 89.85 77.2999 87.26V12.74C77.2999 10.34 75.6799 8.39001 73.6699 8.39001Z" fill="black"/>
</svg>
