<svg width="100" height="100" viewBox="0 0 100 100" fill="none" xmlns="http://www.w3.org/2000/svg">
<g clip-path="url(#clip0_4889_27860)">
<path d="M50 34.84C41.64 34.84 34.84 41.64 34.84 50C34.84 58.36 41.64 65.16 50 65.16C58.36 65.16 65.16 58.36 65.16 50C65.16 41.64 58.36 34.84 50 34.84ZM50 60.16C44.4 60.16 39.84 55.6 39.84 50C39.84 44.4 44.4 39.84 50 39.84C55.6 39.84 60.16 44.4 60.16 50C60.16 55.6 55.6 60.16 50 60.16Z" fill="#0074E2"/>
<path d="M91.66 47.5H86.31C85.08 29.41 70.58 14.92 52.5 13.69V8.34003C52.5 6.96003 51.38 5.84003 50 5.84003C48.62 5.84003 47.5 6.96003 47.5 8.34003V13.69C29.41 14.92 14.92 29.42 13.69 47.5H8.33997C6.95997 47.5 5.83997 48.62 5.83997 50C5.83997 51.38 6.95997 52.5 8.33997 52.5H13.69C14.92 70.59 29.42 85.08 47.5 86.31V91.66C47.5 93.04 48.62 94.16 50 94.16C51.38 94.16 52.5 93.04 52.5 91.66V86.31C70.59 85.08 85.08 70.58 86.31 52.5H91.66C93.04 52.5 94.16 51.38 94.16 50C94.16 48.62 93.04 47.5 91.66 47.5ZM52.5 81.3V77.37C52.5 75.99 51.38 74.87 50 74.87C48.62 74.87 47.5 75.99 47.5 77.37V81.3C32.17 80.09 19.91 67.83 18.7 52.5H22.63C24.01 52.5 25.13 51.38 25.13 50C25.13 48.62 24.01 47.5 22.63 47.5H18.7C19.91 32.17 32.17 19.91 47.5 18.7V22.63C47.5 24.01 48.62 25.13 50 25.13C51.38 25.13 52.5 24.01 52.5 22.63V18.7C67.83 19.91 80.09 32.17 81.3 47.5H77.37C75.99 47.5 74.87 48.62 74.87 50C74.87 51.38 75.99 52.5 77.37 52.5H81.3C80.09 67.83 67.83 80.09 52.5 81.3Z" fill="#0074E2"/>
</g>
<defs>
<clipPath id="clip0_4889_27860">
<rect width="100" height="100" fill="white"/>
</clipPath>
</defs>
</svg>
