<svg width="100" height="100" viewBox="0 0 100 100" fill="none" xmlns="http://www.w3.org/2000/svg">
<path d="M24.4799 86.31C22.9399 86.31 21.7 85.06 21.7 83.53V16.48C21.7 14.94 22.9499 13.7 24.4799 13.7C26.0099 13.7 27.26 14.95 27.26 16.48V83.52C27.26 85.06 26.0099 86.3 24.4799 86.3V86.31Z" fill="#B4F34C"/>
<path d="M76.0699 52.71H32.8399C31.6099 52.71 30.6099 51.71 30.6099 50.48V18.7C30.6099 17.47 31.6099 16.47 32.8399 16.47H76.0699C78.0799 16.47 79.0599 18.92 77.6099 20.31L64.3699 32.98C63.4499 33.86 63.4499 35.32 64.3699 36.2L77.6099 48.87C79.0599 50.26 78.0799 52.71 76.0699 52.71Z" fill="#B4F34C"/>
</svg>
