<svg width="100" height="100" viewBox="0 0 100 100" fill="none" xmlns="http://www.w3.org/2000/svg">
<path d="M35.34 13.42C29.35 13.42 24.49 20.04 24.49 28.2C24.49 35.05 27.92 40.79 32.56 42.47V83.8C32.56 85.34 33.81 86.58 35.34 86.58C36.87 86.58 38.12 85.33 38.12 83.8V42.47C42.76 40.79 46.19 35.05 46.19 28.2C46.19 20.04 41.33 13.42 35.34 13.42Z" fill="#B4F34C"/>
<path d="M72.74 13.97C71.2 13.97 69.96 15.22 69.96 16.75V28.19H67.68V16.75C67.68 15.21 66.43 13.97 64.9 13.97C63.37 13.97 62.12 15.22 62.12 16.75V28.19H59.84V16.75C59.84 15.21 58.59 13.97 57.06 13.97C55.53 13.97 54.28 15.22 54.28 16.75V39.05C54.28 40.59 55.53 41.83 57.06 41.83H62.12V83.79C62.12 85.33 63.37 86.57 64.9 86.57C66.43 86.57 67.68 85.32 67.68 83.79V41.83H72.74C74.28 41.83 75.52 40.58 75.52 39.05V16.75C75.52 15.21 74.27 13.97 72.74 13.97Z" fill="#B4F34C"/>
</svg>
