<svg width="100" height="100" viewBox="0 0 100 100" fill="none" xmlns="http://www.w3.org/2000/svg">
<path d="M86.3299 25.26C86.3299 22.5 84.0899 20.26 81.3299 20.26H18.6699C15.9099 20.26 13.6699 22.5 13.6699 25.26V62.52C13.6699 65.28 15.9099 67.52 18.6699 67.52H68.3099L75.0999 75.09L77.7999 78.1C80.9499 81.61 86.3399 79.12 86.3399 74.16V62.57C86.3399 62.57 86.3399 62.54 86.3399 62.52V25.26H86.3299Z" fill="#B4F34C"/>
<path d="M74.4098 40.48H25.5898C24.2098 40.48 23.0898 39.36 23.0898 37.98C23.0898 36.6 24.2098 35.48 25.5898 35.48H74.4198C75.7998 35.48 76.9198 36.6 76.9198 37.98C76.9198 39.36 75.7998 40.48 74.4198 40.48H74.4098Z" fill="white"/>
<path d="M74.4098 52.2999H25.5898C24.2098 52.2999 23.0898 51.1799 23.0898 49.7999C23.0898 48.4199 24.2098 47.2999 25.5898 47.2999H74.4198C75.7998 47.2999 76.9198 48.4199 76.9198 49.7999C76.9198 51.1799 75.7998 52.2999 74.4198 52.2999H74.4098Z" fill="white"/>
</svg>
