<svg width="50" height="50" viewBox="0 0 50 50" fill="none" xmlns="http://www.w3.org/2000/svg">
<circle cx="25" cy="25" r="25" fill="#F6F6F6"/>
<path d="M25 30.5522C24.4214 30.5522 23.9434 30.3544 23.566 29.9589C23.1887 29.5633 23 29.0622 23 28.4557V14.0965C23 13.49 23.1887 12.9889 23.566 12.5934C23.9434 12.1978 24.4214 12 25 12C25.5786 12 26.0566 12.1978 26.434 12.5934C26.8113 12.9889 27 13.49 27 14.0965V28.4557C27 29.0622 26.8113 29.5633 26.434 29.9589C26.0566 30.3544 25.5786 30.5522 25 30.5522ZM25 37C24.4214 37 23.9434 36.8022 23.566 36.4066C23.1887 36.0111 23 35.51 23 34.9035C23 34.2969 23.1887 33.7959 23.566 33.4003C23.9434 33.0047 24.4214 32.807 25 32.807C25.5786 32.807 26.0566 33.0047 26.434 33.4003C26.8113 33.7959 27 34.2969 27 34.9035C27 35.51 26.8113 36.0111 26.434 36.4066C26.0566 36.8022 25.5786 37 25 37Z" fill="#BEBEBE"/>
</svg>
