<svg width="100" height="100" viewBox="0 0 100 100" fill="none" xmlns="http://www.w3.org/2000/svg">
<path d="M14.9299 27.97C15.1099 27.17 15.2099 26.35 15.4899 25.58C15.7699 24.8 16.0899 23.94 16.6399 23.36C18.4799 21.43 20.3399 19.5 22.3699 17.79C24.4599 16.02 26.9799 15.28 29.6599 16.25C30.9199 16.7 32.1599 17.43 33.1599 18.32C36.2599 21.09 38.6399 24.43 40.2199 28.29C41.7699 32.09 41.1199 35.57 38.5099 38.71C38.0399 39.27 37.5699 39.84 37.0399 40.34C36.2499 41.09 36.1199 41.98 36.3799 42.97C36.8199 44.61 37.7299 46.02 38.7499 47.33C42.8399 52.57 47.5199 57.24 52.8199 61.27C54.1799 62.31 55.6299 63.22 57.3299 63.63C58.2799 63.86 59.0199 63.63 59.7599 62.96C61.1199 61.71 62.4799 60.44 63.9899 59.39C67.4999 56.96 71.2799 56.73 75.1699 58.42C77.7299 59.53 79.9799 61.13 81.9299 63.11C85.6499 66.9 86.0499 71.15 83.1099 75.57C81.2099 78.42 78.7099 80.69 75.9799 82.7C74.1399 84.05 71.9099 84.21 69.6899 84.17C65.2999 84.08 61.1999 82.8 57.2299 81.06C50.2599 78.01 44.1199 73.69 38.4699 68.66C32.1099 63 26.5499 56.64 22.0499 49.39C19.1499 44.72 16.7699 39.81 15.5399 34.4C15.2699 33.23 15.1199 32.03 14.9199 30.84C14.9199 29.88 14.9199 28.92 14.9199 27.96L14.9299 27.97Z" fill="#B4F34C"/>
</svg>
