<svg width="100" height="100" viewBox="0 0 100 100" fill="none" xmlns="http://www.w3.org/2000/svg">
<path d="M50 88.0499C71.0144 88.0499 88.05 71.0144 88.05 49.9999C88.05 28.9855 71.0144 11.95 50 11.95C28.9855 11.95 11.95 28.9855 11.95 49.9999C11.95 71.0144 28.9855 88.0499 50 88.0499Z" fill="#B4F34C"/>
<path d="M66.02 63.6199C65.52 63.6199 65.03 63.4699 64.59 63.1699L48.57 51.9699C47.9 51.4999 47.5 50.7399 47.5 49.9199V29.9199C47.5 28.5399 48.62 27.4199 50 27.4199C51.38 27.4199 52.5 28.5399 52.5 29.9199V48.6199L67.45 59.0699C68.58 59.8599 68.86 61.4199 68.07 62.5499C67.58 63.2499 66.81 63.6199 66.02 63.6199Z" fill="white"/>
</svg>
