<svg width="100" height="100" viewBox="0 0 100 100" fill="none" xmlns="http://www.w3.org/2000/svg">
<g clip-path="url(#clip0_1835_15157)">
<path d="M89.4501 15.22L65.1101 6.13C64.0001 5.71 62.7701 5.71 61.6601 6.13L36.6401 15.49L14.0001 7.03C12.4901 6.46 10.7901 6.68 9.46009 7.6C8.13009 8.52 7.34009 10.04 7.34009 11.65V80.16C7.34009 82.21 8.63009 84.06 10.5501 84.78L34.8901 93.87C35.4501 94.08 36.0301 94.18 36.6201 94.18C37.2101 94.18 37.7901 94.08 38.3501 93.87L63.3701 84.51L86.0001 92.97C87.5101 93.54 89.2101 93.32 90.5401 92.4C91.8701 91.48 92.6601 89.96 92.6601 88.35V19.84C92.6601 17.79 91.3701 15.93 89.4501 15.22ZM39.1201 19.88L60.8901 11.73V80.11L39.1201 88.26V19.88ZM12.3501 11.75L34.1201 19.88V88.25L12.3501 80.16V11.75ZM87.6501 88.25L65.8801 80.12V11.75L87.6501 19.84V88.25Z" fill="black"/>
</g>
<defs>
<clipPath id="clip0_1835_15157">
<rect width="100" height="100" fill="white"/>
</clipPath>
</defs>
</svg>
