<svg width="19" height="20" viewBox="0 0 19 20" fill="none" xmlns="http://www.w3.org/2000/svg">
<path d="M5.47201 16.2111C5.24591 16.2111 5.01981 16.2206 4.79371 16.2111C3.91591 16.1693 3.29461 15.5499 3.26041 14.6702C3.24331 14.256 3.25091 13.8418 3.25661 13.4276C3.26421 12.9526 3.10841 12.5422 2.80441 12.185C2.48901 11.8126 2.16601 11.4421 1.85441 11.0659C1.31861 10.418 1.32621 9.58007 1.86771 8.93217C2.17361 8.56547 2.48331 8.20257 2.79301 7.84157C3.10841 7.47297 3.26801 7.05307 3.25661 6.56477C3.24711 6.17527 3.24711 5.78577 3.25661 5.39817C3.28131 4.45387 3.91021 3.82497 4.84881 3.79837C4.89821 3.79837 4.94951 3.79837 4.99891 3.79837C6.99961 3.81547 6.74501 3.83067 8.20801 2.55957C9.10291 1.78057 9.84011 1.76537 10.7426 2.52917C12.3006 3.84777 11.9415 3.80787 14.0923 3.80407C15.048 3.80407 15.6655 4.42727 15.6978 5.37727C15.6978 5.41527 15.6997 5.45327 15.6997 5.48937C15.6864 7.51667 15.6484 7.20697 16.9233 8.70607C17.7384 9.66557 17.746 10.3667 16.9195 11.33C15.5952 12.8709 15.7244 12.5422 15.713 14.5144C15.7073 15.5974 15.086 16.2225 14.0011 16.2206C12.0175 16.2168 12.2854 16.1598 10.8509 17.4119C10.3569 17.8432 9.84391 18.1795 9.15801 17.999C8.91101 17.9344 8.67161 17.8052 8.45881 17.6608C8.22131 17.5012 8.00091 17.3055 7.80141 17.1003C7.15731 16.4429 6.41821 16.0648 5.47011 16.2187L5.47201 16.2111ZM8.51581 11.121C8.00091 10.5928 7.53731 10.1007 7.05661 9.62377C6.76021 9.33117 6.40871 9.32547 6.15791 9.58007C5.91851 9.82137 5.92231 10.1748 6.19591 10.4541C6.81911 11.0906 7.44991 11.7214 8.08831 12.3427C8.36571 12.6144 8.68491 12.6239 8.95851 12.3541C10.2524 11.0735 11.5406 9.78907 12.8155 8.48757C12.9352 8.36597 13.0131 8.10947 12.9713 7.94987C12.9276 7.77507 12.7376 7.53757 12.5856 7.51667C12.3747 7.48627 12.0764 7.56798 11.9244 7.71427C10.7901 8.81627 9.68431 9.94677 8.51581 11.121Z" fill="#B4F34C"/>
<path d="M8.51523 11.121C9.68373 9.94678 10.7895 8.81628 11.9238 7.71428C12.0758 7.56798 12.3741 7.48628 12.585 7.51668C12.7389 7.53948 12.927 7.77698 12.9707 7.94988C13.0106 8.10948 12.9346 8.36598 12.8149 8.48758C11.5419 9.78718 10.2518 11.0735 8.95793 12.3541C8.68433 12.6258 8.36513 12.6144 8.08773 12.3427C7.44933 11.7214 6.81853 11.0906 6.19533 10.4541C5.92173 10.1748 5.91983 9.82138 6.15733 9.58008C6.40813 9.32548 6.75963 9.33118 7.05603 9.62378C7.53673 10.1007 8.00223 10.5909 8.51523 11.121Z" fill="#0A0A0A"/>
</svg>
