<svg width="17" height="13" viewBox="0 0 17 13" fill="none" xmlns="http://www.w3.org/2000/svg">
<path d="M16.1297 1.30476C16.1297 0.725161 15.6593 0.254761 15.0797 0.254761H1.92109C1.34149 0.254761 0.871094 0.725161 0.871094 1.30476V9.12936C0.871094 9.70896 1.34149 10.1794 1.92109 10.1794H12.3455L13.7714 11.7691L14.3384 12.4012C14.9999 13.1383 16.1318 12.6154 16.1318 11.5738V9.13986C16.1318 9.13986 16.1318 9.13356 16.1318 9.12936V1.30476H16.1297Z" fill="#B4F34C"/>
<path d="M13.6268 4.50117H3.37461C3.08481 4.50117 2.84961 4.26597 2.84961 3.97617C2.84961 3.68637 3.08481 3.45117 3.37461 3.45117H13.6289C13.9187 3.45117 14.1539 3.68637 14.1539 3.97617C14.1539 4.26597 13.9187 4.50117 13.6289 4.50117H13.6268Z" fill="white"/>
<path d="M13.6268 6.98317H3.37461C3.08481 6.98317 2.84961 6.74797 2.84961 6.45817C2.84961 6.16837 3.08481 5.93317 3.37461 5.93317H13.6289C13.9187 5.93317 14.1539 6.16837 14.1539 6.45817C14.1539 6.74797 13.9187 6.98317 13.6289 6.98317H13.6268Z" fill="white"/>
</svg>
