<svg width="100" height="100" viewBox="0 0 100 100" fill="none" xmlns="http://www.w3.org/2000/svg">
<g clip-path="url(#clip0_1835_15357)">
<path d="M79.7899 35.56C79.4499 44.94 74.7399 54.16 70.4699 62.53C65.3499 72.57 59.5999 82.31 53.4599 91.76C51.8399 94.25 48.1999 94.25 46.5799 91.76C40.3799 82.21 34.5599 72.35 29.3999 62.2C23.1999 49.99 16.3299 36.61 22.7999 23.06C27.7499 12.69 38.6399 6.37 50.0199 6.37C61.7399 6.37 72.9099 13.08 77.6399 23.94C79.3199 27.81 79.9299 31.69 79.7899 35.56Z" fill="#2F2F2F"/>
<path d="M50.0199 57.14C61.6621 57.14 71.0999 47.7021 71.0999 36.06C71.0999 24.4178 61.6621 14.98 50.0199 14.98C38.3778 14.98 28.9399 24.4178 28.9399 36.06C28.9399 47.7021 38.3778 57.14 50.0199 57.14Z" fill="white"/>
<path d="M45.1799 37.62C41.6399 37.19 38.4399 36.8 35.2899 36.42C34.8799 36.37 34.8799 35.77 35.2899 35.73L45.2399 34.56C45.4899 34.53 45.6299 34.25 45.4999 34.04L42.8699 29.46C42.6899 29.15 43.0299 28.81 43.3399 28.98L47.9699 31.53C48.1899 31.65 48.4599 31.51 48.4799 31.27L49.6599 21.37C49.7099 20.96 50.2999 20.96 50.3499 21.37C50.7399 24.57 51.1399 27.8 51.5599 31.27C51.5899 31.52 51.8599 31.66 52.0799 31.54L56.6499 28.99C56.9499 28.82 57.2899 29.16 57.1199 29.47C56.2199 31.07 55.4699 32.41 54.5799 33.99C54.4599 34.21 54.5999 34.49 54.8399 34.51C58.2799 34.94 61.5099 35.35 64.7099 35.75C65.1199 35.8 65.1199 36.4 64.7099 36.44C61.5899 36.81 58.4099 37.2 54.8199 37.64C54.5699 37.67 54.4299 37.95 54.5599 38.17C55.4199 39.68 56.2199 41.09 57.2199 42.84C57.3999 43.15 57.0499 43.49 56.7399 43.32C55.0199 42.32 53.6299 41.52 52.1099 40.64C51.8899 40.51 51.6099 40.65 51.5799 40.9C51.1499 44.38 50.7599 47.58 50.3699 50.76C50.3199 51.17 49.7299 51.17 49.6799 50.76C49.2899 47.6 48.8999 44.4 48.4699 40.89C48.4399 40.64 48.1599 40.5 47.9399 40.63C46.4499 41.49 45.0799 42.29 43.3999 43.26C43.0999 43.44 42.7499 43.1 42.9199 42.79C43.8299 41.12 44.5799 39.72 45.4299 38.15C45.5499 37.93 45.3999 37.66 45.1599 37.63L45.1799 37.62Z" fill="#B4F34C"/>
</g>
<defs>
<clipPath id="clip0_1835_15357">
<rect width="100" height="100" fill="white"/>
</clipPath>
</defs>
</svg>
