<svg width="100" height="100" viewBox="0 0 100 100" fill="none" xmlns="http://www.w3.org/2000/svg">
<g clip-path="url(#clip0_1835_15359)">
<path d="M84.14 33.4527C83.7504 44.2025 78.3526 54.7689 73.459 64.3612C67.5913 75.8674 61.0016 87.0298 53.965 97.8598C52.1084 100.713 47.9368 100.713 46.0803 97.8598C38.9749 86.9152 32.3049 75.6153 26.3914 63.983C19.286 49.99 11.4128 34.656 18.8276 19.1273C24.5005 7.24293 36.9808 0 50.0226 0C63.4541 0 76.2553 7.68988 81.6761 20.1358C83.6014 24.571 84.3005 29.0176 84.14 33.4527Z" fill="#B4F34C"/>
<path d="M50.0226 58.1841C63.3649 58.1841 74.181 47.368 74.181 34.0257C74.181 20.6834 63.3649 9.86731 50.0226 9.86731C36.6803 9.86731 25.8643 20.6834 25.8643 34.0257C25.8643 47.368 36.6803 58.1841 50.0226 58.1841Z" fill="white"/>
<path d="M44.4757 35.8135C40.4188 35.3207 36.7515 34.8738 33.1415 34.4383C32.6716 34.381 32.6716 33.6934 33.1415 33.6475L44.5445 32.3067C44.831 32.2723 44.9915 31.9514 44.8425 31.7107L41.8284 26.4619C41.6221 26.1066 42.0118 25.717 42.367 25.9118L47.6732 28.8342C47.9253 28.9717 48.2347 28.8113 48.2576 28.5362L49.61 17.1905C49.6673 16.7206 50.3434 16.7206 50.4007 17.1905C50.8477 20.8578 51.3061 24.5595 51.7874 28.5362C51.8218 28.8227 52.1312 28.9832 52.3834 28.8456L57.6207 25.9233C57.9646 25.7284 58.3542 26.1181 58.1594 26.4733C57.1279 28.307 56.2684 29.8427 55.2485 31.6534C55.1109 31.9055 55.2714 32.2264 55.5464 32.2494C59.4888 32.7421 63.1905 33.212 66.8578 33.6704C67.3276 33.7277 67.3276 34.4154 66.8578 34.4612C63.2821 34.8852 59.6378 35.3322 55.5235 35.8364C55.237 35.8708 55.0765 36.1917 55.2255 36.4438C56.2111 38.1743 57.1279 39.7903 58.274 41.7958C58.4803 42.1511 58.0792 42.5407 57.7239 42.3459C55.7527 41.1999 54.1597 40.283 52.4177 39.2745C52.1656 39.1256 51.8447 39.286 51.8104 39.5725C51.3176 43.5607 50.8706 47.228 50.4236 50.8724C50.3663 51.3423 49.6902 51.3423 49.6329 50.8724C49.1859 47.2509 48.739 43.5836 48.2462 39.561C48.2118 39.2745 47.8909 39.1141 47.6388 39.2631C45.9312 40.2487 44.3611 41.1655 42.4358 42.2771C42.092 42.4834 41.6909 42.0938 41.8857 41.7385C42.9286 39.8246 43.7881 38.2202 44.7622 36.4209C44.8998 36.1688 44.7279 35.8594 44.4528 35.825L44.4757 35.8135Z" fill="#B4F34C"/>
</g>
<defs>
<clipPath id="clip0_1835_15359">
<rect width="100" height="100" fill="white"/>
</clipPath>
</defs>
</svg>
