<svg width="101" height="100" viewBox="0 0 101 100" fill="none" xmlns="http://www.w3.org/2000/svg">
<path d="M36.15 13.42C30.16 13.42 25.3 20.04 25.3 28.2C25.3 35.05 28.73 40.79 33.37 42.47V83.8C33.37 85.34 34.62 86.58 36.15 86.58C37.68 86.58 38.93 85.33 38.93 83.8V42.47C43.57 40.79 47 35.05 47 28.2C47 20.04 42.14 13.42 36.15 13.42Z" fill="#0A0A0A"/>
<path d="M73.5501 13.97C72.0101 13.97 70.7701 15.22 70.7701 16.75V28.19H68.4901V16.75C68.4901 15.21 67.2401 13.97 65.7101 13.97C64.1801 13.97 62.9301 15.22 62.9301 16.75V28.19H60.6501V16.75C60.6501 15.21 59.4001 13.97 57.8701 13.97C56.3401 13.97 55.0901 15.22 55.0901 16.75V39.05C55.0901 40.59 56.3401 41.83 57.8701 41.83H62.9301V83.79C62.9301 85.33 64.1801 86.57 65.7101 86.57C67.2401 86.57 68.4901 85.32 68.4901 83.79V41.83H73.5501C75.0901 41.83 76.3301 40.58 76.3301 39.05V16.75C76.3301 15.21 75.0801 13.97 73.5501 13.97Z" fill="#0A0A0A"/>
</svg>
