<svg width="100" height="100" viewBox="0 0 100 100" fill="none" xmlns="http://www.w3.org/2000/svg">
<path d="M82.4499 50.41C81.3399 50.36 80.2799 50.74 79.4599 51.49C78.5499 52.33 78.0199 53.53 77.9799 54.87C77.7999 60.62 76.1499 65.71 73.0799 69.98C64.5699 81.85 49.5299 85.38 36.5099 78.57C23.8299 71.93 18.4699 56.13 24.5799 43.34C29.5899 32.83 38.3399 27.49 51.3099 27.02H51.4499C51.5199 27.01 51.6299 27 51.6199 26.98C51.6399 27.02 51.6799 27.09 51.4899 27.26C51.2099 27.51 50.9299 27.76 50.6399 28C50.2399 28.34 49.8299 28.69 49.4499 29.06C47.6099 30.88 47.3899 33.15 48.9099 34.86C50.4599 36.61 53.1199 36.83 54.9599 35.36C58.8799 32.23 62.3899 29.35 65.6899 26.54C66.7199 25.66 67.3099 24.54 67.3399 23.39C67.3699 22.35 66.9299 21.35 66.1099 20.58C62.5499 17.21 58.7199 13.66 54.6399 10.5C52.7699 9.04998 50.3199 9.39998 48.8299 11.33C47.4199 13.15 47.6499 15.32 49.4099 16.99C49.7399 17.31 50.0899 17.62 50.4299 17.92C50.7999 18.25 51.1699 18.58 51.5299 18.93C51.6599 19.05 51.6799 19.13 51.7199 19.14C51.6699 19.14 51.5099 19.1 51.4299 19.08C50.0499 18.67 48.6699 18.78 47.3299 18.89H47.2099C40.9299 19.41 35.1099 21.42 29.4199 25.05C15.7699 33.75 9.83992 52.37 15.9099 67.43C21.5099 81.32 35.2399 90.36 50.1099 90.36C51.3099 90.36 52.5199 90.3 53.7299 90.18C71.3299 88.43 85.3699 73.89 86.3899 56.35L86.4099 56.2C86.4299 55.98 86.4699 55.63 86.4799 55.28C86.5899 52.63 84.8599 50.53 82.4499 50.4V50.41Z" fill="#0074E2"/>
</svg>
