<svg width="20" height="21" viewBox="0 0 20 21" fill="none" xmlns="http://www.w3.org/2000/svg">
<path d="M17.5737 15.8999L13.4257 11.7519C14.1137 10.7359 14.4837 9.53995 14.4837 8.28795C14.4837 6.63395 13.8397 5.07795 12.6697 3.90795C10.2537 1.49195 6.3237 1.49195 3.9097 3.90795C2.7397 5.07795 2.0957 6.63395 2.0957 8.28795C2.0957 9.94195 2.7397 11.4979 3.9097 12.6679C5.1177 13.8759 6.7037 14.4799 8.2897 14.4799C9.4997 14.4799 10.7097 14.1279 11.7537 13.4239L15.9037 17.5739C16.3477 18.0179 17.0657 18.0179 17.5097 17.5739L17.5757 17.5079C18.0197 17.0639 18.0197 16.3459 17.5757 15.9019L17.5737 15.8999ZM4.6157 11.96C3.6337 10.978 3.0937 9.67394 3.0937 8.28594C3.0937 6.89794 3.6337 5.59395 4.6157 4.61195C5.6277 3.59995 6.9597 3.09194 8.2897 3.09194C9.6197 3.09194 10.9497 3.59795 11.9637 4.61195C12.9457 5.59395 13.4857 6.89794 13.4857 8.28594C13.4857 9.67394 12.9457 10.978 11.9637 11.96C9.9377 13.986 6.6417 13.986 4.6177 11.96H4.6157Z" fill="#B4F34C"/>
</svg>
