<svg width="100" height="100" viewBox="0 0 100 100" fill="none" xmlns="http://www.w3.org/2000/svg">
<path d="M87.87 79.5L67.13 58.76C70.57 53.68 72.42 47.7 72.42 41.44C72.42 33.17 69.2 25.39 63.35 19.54C51.27 7.45998 31.62 7.45998 19.55 19.54C13.7 25.39 10.48 33.17 10.48 41.44C10.48 49.71 13.7 57.49 19.55 63.34C25.59 69.38 33.52 72.4 41.45 72.4C47.5 72.4 53.55 70.64 58.77 67.12L79.52 87.87C81.74 90.09 85.33 90.09 87.55 87.87L87.88 87.54C90.1 85.32 90.1 81.73 87.88 79.51L87.87 79.5ZM23.08 59.8C18.17 54.89 15.47 48.37 15.47 41.43C15.47 34.49 18.17 27.97 23.08 23.06C28.14 18 34.8 15.46 41.45 15.46C48.1 15.46 54.75 17.99 59.82 23.06C64.73 27.97 67.43 34.49 67.43 41.43C67.43 48.37 64.73 54.89 59.82 59.8C49.69 69.93 33.21 69.93 23.09 59.8H23.08Z" fill="#0A0A0A"/>
</svg>
