<svg width="8" height="8" viewBox="0 0 8 8" fill="none" xmlns="http://www.w3.org/2000/svg">
<path d="M4.00031 7.80531C6.10176 7.80531 7.80531 6.10175 7.80531 4.00031C7.80531 1.89887 6.10176 0.195312 4.00031 0.195312C1.89887 0.195312 0.195312 1.89887 0.195312 4.00031C0.195312 6.10175 1.89887 7.80531 4.00031 7.80531Z" fill="#B4F34C"/>
<path d="M5.602 5.36219C5.552 5.36219 5.503 5.34719 5.459 5.31719L3.857 4.19719C3.79 4.15019 3.75 4.07419 3.75 3.99219V1.99219C3.75 1.85419 3.862 1.74219 4 1.74219C4.138 1.74219 4.25 1.85419 4.25 1.99219V3.86219L5.745 4.90719C5.858 4.98619 5.886 5.14219 5.807 5.25519C5.758 5.32519 5.681 5.36219 5.602 5.36219Z" fill="white"/>
</svg>
