<svg width="8" height="8" viewBox="0 0 8 8" fill="none" xmlns="http://www.w3.org/2000/svg">
<path d="M0.493188 1.797C0.511188 1.717 0.521187 1.635 0.549187 1.558C0.577187 1.48 0.609187 1.394 0.664187 1.336C0.848187 1.143 1.03419 0.949999 1.23719 0.778999C1.44619 0.601999 1.69819 0.527999 1.96619 0.624999C2.09219 0.669999 2.21619 0.742999 2.31619 0.831999C2.62619 1.109 2.86419 1.443 3.02219 1.829C3.17719 2.209 3.11219 2.557 2.85119 2.871C2.80419 2.927 2.75719 2.984 2.70419 3.034C2.62519 3.109 2.61219 3.198 2.63819 3.297C2.68219 3.461 2.77319 3.602 2.87519 3.733C3.28419 4.257 3.75219 4.724 4.28219 5.127C4.41819 5.231 4.56319 5.322 4.73319 5.363C4.82819 5.386 4.90219 5.363 4.97619 5.296C5.11219 5.171 5.24819 5.044 5.39919 4.939C5.75019 4.696 6.12819 4.673 6.51719 4.842C6.77319 4.953 6.99819 5.113 7.19319 5.311C7.56519 5.69 7.60519 6.115 7.31119 6.557C7.12119 6.842 6.87119 7.069 6.59819 7.27C6.41419 7.405 6.19119 7.421 5.96919 7.417C5.53019 7.408 5.12019 7.28 4.72319 7.106C4.02619 6.801 3.41219 6.369 2.84719 5.866C2.21119 5.3 1.65519 4.664 1.20519 3.939C0.915187 3.472 0.677187 2.981 0.554187 2.44C0.527187 2.323 0.512188 2.203 0.492188 2.084C0.492188 1.988 0.492188 1.892 0.492188 1.796L0.493188 1.797Z" fill="#B4F34C"/>
</svg>
