<svg width="22" height="22" viewBox="0 0 22 22" fill="none" xmlns="http://www.w3.org/2000/svg">
<path d="M7.45904 12.145C4.86983 11.8308 2.52845 11.5425 0.220115 11.2636C-0.0772779 11.2282 -0.0772779 10.791 0.220115 10.7556L7.5086 9.90017C7.6927 9.88126 7.79183 9.67568 7.70214 9.51736L5.77853 6.16187C5.64872 5.93739 5.89654 5.68454 6.12549 5.80742L9.51483 7.6742C9.67296 7.764 9.87122 7.66003 9.89247 7.48044L10.7563 0.225971C10.7917 -0.0717688 11.2284 -0.0788579 11.2614 0.225971C11.5494 2.57009 11.8373 4.94019 12.1442 7.48516C12.163 7.66948 12.3684 7.76873 12.5265 7.68366L15.871 5.81215C16.0952 5.68691 16.3431 5.93739 16.218 6.1666C15.5571 7.34102 15.0072 8.32167 14.3581 9.47719C14.2684 9.63551 14.3722 9.84109 14.5516 9.86C17.0724 10.1743 19.4326 10.472 21.774 10.7674C22.0714 10.8076 22.0714 11.24 21.774 11.2754C19.4869 11.5496 17.1597 11.8331 14.5351 12.1521C14.351 12.171 14.2471 12.3766 14.3416 12.5397C14.9718 13.6456 15.5571 14.6806 16.2864 15.966C16.4162 16.1952 16.1637 16.4434 15.9347 16.3134C14.6744 15.5809 13.6571 14.9948 12.5454 14.3521C12.3873 14.2576 12.1819 14.3615 12.1583 14.5459C11.8468 17.0956 11.5588 19.4444 11.2756 21.7767C11.2402 22.0744 10.8035 22.0744 10.7705 21.7767C10.4873 19.4609 10.1993 17.1168 9.88775 14.5411C9.86178 14.3568 9.66352 14.2528 9.50066 14.3474C8.41022 14.9807 7.40711 15.562 6.17742 16.2732C5.95319 16.4032 5.70064 16.1527 5.82574 15.9306C6.49133 14.7065 7.04127 13.681 7.66674 12.5302C7.75171 12.3719 7.64786 12.171 7.46848 12.1521L7.46376 12.1474L7.45904 12.145Z" fill="#B4F34C"/>
</svg>
