<svg width="100" height="100" viewBox="0 0 100 100" fill="none" xmlns="http://www.w3.org/2000/svg" >
<path d="M53.59 13.39L62.78 32.02C63.53 33.54 64.98 34.59 66.65 34.83L87.2 37.82C90.48 38.3 91.79 42.33 89.42 44.64L74.55 59.14C73.34 60.32 72.78 62.02 73.07 63.69L76.58 84.16C77.14 87.43 73.71 89.92 70.78 88.38L52.4 78.71C50.9 77.92 49.11 77.92 47.61 78.71L29.23 88.38C26.3 89.92 22.87 87.43 23.43 84.16L26.94 63.69C27.23 62.02 26.67 60.32 25.46 59.14L10.59 44.64C8.22003 42.33 9.53003 38.29 12.81 37.82L33.36 34.83C35.04 34.59 36.48 33.53 37.23 32.02L46.42 13.39C47.89 10.42 52.13 10.42 53.59 13.39Z" fill="#B4F34C" />
</svg>


