<svg width="101" height="101" viewBox="0 0 101 101" fill="none" xmlns="http://www.w3.org/2000/svg">
<g filter="url(#filter0_d_1590_10692)">
<g filter="url(#filter1_d_1590_10692)">
<path d="M50.3 89.53C71.8888 89.53 89.39 72.0288 89.39 50.44C89.39 28.8512 71.8888 11.35 50.3 11.35C28.7111 11.35 11.21 28.8512 11.21 50.44C11.21 72.0288 28.7111 89.53 50.3 89.53Z" fill="#2F2F2F"/>
</g>
<mask id="mask0_1590_10692" style="mask-type:luminance" maskUnits="userSpaceOnUse" x="11" y="11" width="79" height="79">
<path d="M50.3 89.53C71.8888 89.53 89.39 72.0288 89.39 50.44C89.39 28.8512 71.8888 11.35 50.3 11.35C28.7111 11.35 11.21 28.8512 11.21 50.44C11.21 72.0288 28.7111 89.53 50.3 89.53Z" fill="white"/>
</mask>
<g mask="url(#mask0_1590_10692)">
<path d="M77.63 89.24C76.8 89.24 75.96 88.99 75.23 88.48L48.31 69.66C47.19 68.87 46.52 67.59 46.52 66.22V32.61C46.52 30.29 48.4 28.41 50.72 28.41C53.04 28.41 54.92 30.29 54.92 32.61V64.03L80.05 81.6C81.95 82.93 82.42 85.55 81.09 87.45C80.27 88.62 78.97 89.24 77.64 89.24H77.63Z" fill="#B4F34C"/>
</g>
</g>
<defs>
<filter id="filter0_d_1590_10692" x="-3.69995" y="0.439941" width="108" height="108" filterUnits="userSpaceOnUse" color-interpolation-filters="sRGB">
<feFlood flood-opacity="0" result="BackgroundImageFix"/>
<feColorMatrix in="SourceAlpha" type="matrix" values="0 0 0 0 0 0 0 0 0 0 0 0 0 0 0 0 0 0 127 0" result="hardAlpha"/>
<feOffset dy="4"/>
<feGaussianBlur stdDeviation="2"/>
<feComposite in2="hardAlpha" operator="out"/>
<feColorMatrix type="matrix" values="0 0 0 0 0 0 0 0 0 0 0 0 0 0 0 0 0 0 0.25 0"/>
<feBlend mode="normal" in2="BackgroundImageFix" result="effect1_dropShadow_1590_10692"/>
<feBlend mode="normal" in="SourceGraphic" in2="effect1_dropShadow_1590_10692" result="shape"/>
</filter>
<filter id="filter1_d_1590_10692" x="7.20996" y="11.35" width="86.1799" height="86.1801" filterUnits="userSpaceOnUse" color-interpolation-filters="sRGB">
<feFlood flood-opacity="0" result="BackgroundImageFix"/>
<feColorMatrix in="SourceAlpha" type="matrix" values="0 0 0 0 0 0 0 0 0 0 0 0 0 0 0 0 0 0 127 0" result="hardAlpha"/>
<feOffset dy="4"/>
<feGaussianBlur stdDeviation="2"/>
<feComposite in2="hardAlpha" operator="out"/>
<feColorMatrix type="matrix" values="0 0 0 0 0 0 0 0 0 0 0 0 0 0 0 0 0 0 0.25 0"/>
<feBlend mode="normal" in2="BackgroundImageFix" result="effect1_dropShadow_1590_10692"/>
<feBlend mode="normal" in="SourceGraphic" in2="effect1_dropShadow_1590_10692" result="shape"/>
</filter>
</defs>
</svg>
