<svg width="1020" height="252" viewBox="0 0 1020 252" fill="none" xmlns="http://www.w3.org/2000/svg">
<path d="M911.44 153.618C911.44 133.257 924.959 118.754 944.893 118.754C961.17 118.754 978 129.073 978 151.456C978 153.897 977.793 156.547 977.379 159.266H932.684C933.581 166.518 940.478 169.934 947.307 169.934C953.238 169.934 958.549 166.169 962.136 161.637L975.931 173.909C970.895 181.998 960.48 188.482 947.031 188.482C925.994 188.482 911.44 173.979 911.44 153.618ZM945.513 136.046C937.926 136.046 933.443 140.858 932.684 146.366H957.928C957.722 141.136 952.48 136.046 945.513 136.046Z" fill="#B4F34C"/>
<path d="M854.873 188.482C842.507 188.482 830.619 179.741 830.619 163.978V120.338H852.14V157.783C852.14 165.148 857.948 168.659 863.14 168.659C868.538 168.659 874.072 165.148 874.072 157.783V120.338H895.593V186.417H875.848L875.165 180.154C870.519 186.073 862.594 188.482 854.873 188.482Z" fill="#B4F34C"/>
<path d="M794.169 186.898H771.983V120.144H792.902L793.606 129.253C796.775 122.647 803.467 118.754 811.285 118.754C813.961 118.754 816.708 119.24 819.525 120.144L818.187 139.266C815.37 138.293 812.482 137.806 809.665 137.806C801.283 137.806 794.169 142.326 794.169 154.773V186.898Z" fill="#B4F34C"/>
<path d="M695.915 111.628V91.8129H775.152V111.628H747.058V186.898H724.079V111.628H695.915Z" fill="#B4F34C"/>
<path d="M637.28 153.618C637.28 133.257 650.799 118.754 670.732 118.754C687.01 118.754 703.839 129.073 703.839 151.456C703.839 153.897 703.632 156.547 703.218 159.266H658.524C659.42 166.518 666.318 169.934 673.146 169.934C679.078 169.934 684.389 166.169 687.975 161.637L701.77 173.909C696.735 181.998 686.32 188.482 672.87 188.482C651.833 188.482 637.28 173.979 637.28 153.618ZM671.353 136.046C663.766 136.046 659.282 140.858 658.524 146.366H683.768C683.561 141.136 678.319 136.046 671.353 136.046Z" fill="#B4F34C"/>
<path d="M512.085 186.898V120.144H532.363L533.065 127.167C537.836 121.187 545.975 118.754 553.904 118.754C562.885 118.754 571.515 122.508 575.094 129.879C580.567 122.23 589.267 118.754 597.757 118.754C610.738 118.754 623.017 127.237 623.017 143.508V186.898H600.915V149.766C600.915 142.326 595.442 138.78 589.899 138.78C584.356 138.78 578.532 142.326 578.532 149.766V186.898H556.43V149.766C556.43 142.326 550.746 138.78 545.414 138.78C539.871 138.78 534.187 142.326 534.187 149.766V186.898H512.085Z" fill="#B4F34C"/>
<path d="M424.924 153.618C424.924 133.676 440.394 118.754 461.373 118.754C482.352 118.754 497.822 133.676 497.822 153.618C497.822 173.56 482.352 188.482 461.373 188.482C440.394 188.482 424.924 173.56 424.924 153.618ZM446.963 153.618C446.963 162.125 452.896 168.47 461.373 168.47C469.85 168.47 475.783 162.125 475.783 153.618C475.783 145.32 469.85 138.975 461.373 138.975C452.896 138.975 446.963 145.32 446.963 153.618Z" fill="#B4F34C"/>
<path d="M375.534 188.482C347.139 188.482 325.085 167.398 325.085 139.285C325.085 111.172 347.139 90.2281 375.534 90.2281C392.515 90.2281 409.496 99.5054 418.233 114.054L400.406 127.196C394.558 118.341 387.301 111.875 375.534 111.875C359.399 111.875 348.83 123.401 348.83 139.285C348.83 155.169 359.399 166.836 375.534 166.836C386.174 166.836 394.206 161.635 400.829 151.655L418.585 164.586C409.496 179.627 393.642 188.482 375.534 188.482Z" fill="#B4F34C"/>
<path d="M181.219 117.761C174.621 117.761 168.872 120.413 165.121 125.026L165.053 119.155H141.209V189.727H166.605V155.097C166.605 144.748 170.991 139.5 179.627 139.5C182.285 139.5 184.944 139.96 187.561 140.88L189.343 141.502L189.491 119.52L188.547 119.209C185.753 118.302 184.067 117.748 181.219 117.748V117.761Z" fill="#0A0A0A"/>
<path d="M222.97 119.155H198.451V189.727H222.97V119.155Z" fill="#0A0A0A"/>
<path d="M210.326 86.6483C202.513 86.6483 197.062 92.1404 197.062 100.013C197.062 107.886 202.513 113.311 210.326 113.311C218.139 113.311 223.726 107.846 223.726 100.013C223.726 92.181 218.22 86.6483 210.326 86.6483Z" fill="#0A0A0A"/>
<path d="M276.852 117.761C268.958 117.761 262.629 119.899 258.014 124.119L257.987 119.155H234.143V212.466H259.539V185.114C263.938 188.225 269.97 189.916 276.852 189.916C295.919 189.916 309.237 175.131 309.237 153.974C309.237 132.817 295.919 117.761 276.852 117.761ZM284.584 153.839C284.584 161.833 278.97 167.623 271.252 167.623C263.533 167.623 258.392 161.955 258.392 153.839C258.392 145.722 263.682 140.054 271.252 140.054C279.227 140.054 284.584 145.601 284.584 153.839Z" fill="#0A0A0A"/>
<path d="M128.039 104.288L102.873 90.8015C102.077 90.2333 101.591 89.2729 101.591 88.2313C101.591 81.2782 96.3959 75.6644 89.6894 75.475C83.0638 75.6644 77.8686 81.2647 77.8686 88.2313C77.8686 89.2729 77.3963 90.2198 76.5866 90.8015L51.4203 104.288C47.4665 106.358 43 108.712 43 114.853V120.088C43 121.509 43.6477 122.334 44.1875 122.767C45.0646 123.47 46.3465 123.714 47.7229 123.416C54.308 121.996 61.028 120.616 67.5187 119.277L69.9746 118.776C71.8637 118.384 73.7664 117.991 75.6556 117.599C75.8445 117.559 76.0469 117.504 76.2358 117.464C76.7351 117.342 77.1939 117.22 77.4233 117.329C77.6932 117.464 77.8821 117.789 77.8821 118.113V171.465C77.8821 172.791 77.0994 173.968 75.9254 174.387L65.724 178.012C64.1856 178.418 63.1196 179.839 63.1196 181.475V187.184C63.1196 189.145 64.6579 190.742 66.682 190.742L89.7298 188.564L112.913 190.742C114.815 190.742 116.367 189.145 116.367 187.17V181.462C116.367 179.825 115.301 178.405 113.871 178.039L103.561 174.387C102.387 173.968 101.605 172.791 101.605 171.465V118.113C101.605 117.775 101.793 117.464 102.063 117.329C102.293 117.207 102.765 117.329 103.251 117.464C103.453 117.518 103.642 117.559 103.831 117.599C105.72 117.991 107.623 118.384 109.512 118.776L111.901 119.263C118.418 120.602 125.152 121.982 131.75 123.416C133.113 123.714 134.409 123.47 135.286 122.767C135.825 122.334 136.473 121.509 136.473 120.088V114.853C136.473 108.712 131.993 106.358 128.053 104.288H128.039Z" fill="#0A0A0A"/>
<path d="M263.748 71.9983C256.704 71.1461 250.335 70.3615 244.06 69.604C243.251 69.5093 243.251 68.3189 244.06 68.2242L263.883 65.8975C264.382 65.8434 264.652 65.2887 264.409 64.8559L259.174 55.7384C258.823 55.1297 259.498 54.4398 260.118 54.778L269.335 59.8507C269.766 60.0942 270.306 59.8102 270.36 59.3232L272.708 39.6138C272.803 38.8022 273.99 38.7886 274.085 39.6138C274.867 45.9852 275.65 52.4242 276.487 59.3367C276.54 59.8372 277.094 60.1078 277.526 59.8778L286.621 54.7915C287.228 54.4533 287.902 55.1297 287.565 55.752C285.77 58.9444 284.273 61.6093 282.505 64.7476C282.262 65.1805 282.545 65.7351 283.031 65.7892C289.886 66.6415 296.309 67.4531 302.678 68.2512C303.488 68.3594 303.488 69.5363 302.678 69.631C296.458 70.375 290.129 71.1461 282.991 72.0118C282.491 72.0659 282.208 72.6206 282.464 73.067C284.178 76.07 285.77 78.8837 287.754 82.3738C288.105 82.9961 287.417 83.6724 286.796 83.3207C283.368 81.3322 280.602 79.736 277.58 77.9909C277.148 77.7339 276.594 78.018 276.527 78.5185C275.677 85.4445 274.894 91.8294 274.125 98.1602C274.031 98.9719 272.843 98.9719 272.749 98.1602C271.98 91.87 271.197 85.4986 270.347 78.505C270.279 78.0045 269.739 77.7204 269.294 77.9774C266.326 79.6954 263.6 81.2781 260.253 83.2125C259.646 83.5642 258.958 82.8878 259.295 82.2791C261.103 78.9514 262.601 76.1647 264.301 73.0399C264.531 72.607 264.247 72.0659 263.762 72.0118L263.748 71.9983Z" fill="#B4F34C"/>
</svg>
