<svg width="100" height="101" viewBox="0 0 100 101" fill="none" xmlns="http://www.w3.org/2000/svg">
<g filter="url(#filter0_d_1590_10686)">
<g filter="url(#filter1_d_1590_10686)">
<path d="M50.0002 90.6199C71.589 90.6199 89.0901 73.1188 89.0901 51.5299C89.0901 29.9411 71.589 12.4399 50.0002 12.4399C28.4113 12.4399 10.9102 29.9411 10.9102 51.5299C10.9102 73.1188 28.4113 90.6199 50.0002 90.6199Z" fill="#2F2F2F"/>
</g>
<path d="M59.26 47.38C56.49 44.61 52.81 43.09 48.9 43.09C44.99 43.09 41.31 44.61 38.54 47.38C35.77 50.15 34.25 53.83 34.25 57.74C34.25 61.65 35.77 65.33 38.54 68.1C41.31 70.87 44.99 72.39 48.9 72.39C52.81 72.39 56.49 70.87 59.26 68.1C62.03 65.33 63.55 61.65 63.55 57.74C63.55 53.83 62.03 50.15 59.26 47.38ZM48.56 62.96H48.55C47.14 62.96 45.85 63.04 44.68 63.16C44.53 63.18 44.39 63.09 44.34 62.94C43.87 61.66 43.59 60.37 43.48 59.06C43.46 58.87 43.62 58.7 43.81 58.7H53.98C54.17 58.7 54.32 58.86 54.31 59.06C54.2 60.39 53.9 61.71 53.42 63.01C53.37 63.15 53.22 63.24 53.07 63.22C51.74 63.06 50.24 62.95 48.56 62.95V62.96ZM52.23 65.56C51.53 66.8 50.66 68.01 49.62 69.22C49.23 69.67 48.54 69.67 48.15 69.22C47.09 68 46.21 66.76 45.51 65.5C45.39 65.29 45.53 65.03 45.77 65.01C46.63 64.94 47.56 64.9 48.55 64.9C49.79 64.9 50.93 64.96 51.97 65.07C52.21 65.09 52.34 65.35 52.22 65.56H52.23ZM48.15 46.25C48.54 45.79 49.24 45.79 49.63 46.25C50.11 46.82 50.68 47.54 51.24 48.39C51.54 48.85 51.86 49.37 52.18 49.94C52.29 50.15 52.16 50.4 51.92 50.43C50.89 50.53 49.77 50.59 48.55 50.59C47.59 50.59 46.68 50.55 45.83 50.49C45.59 50.47 45.45 50.22 45.57 50.01C45.89 49.42 46.22 48.88 46.54 48.4C47.1 47.55 47.67 46.83 48.15 46.26V46.25ZM48.54 52.52H48.55C50.19 52.52 51.67 52.42 52.98 52.26C53.13 52.24 53.27 52.33 53.33 52.47C53.77 53.67 54.12 54.99 54.27 56.41C54.29 56.6 54.14 56.77 53.94 56.77H43.83C43.64 56.77 43.48 56.6 43.5 56.41C43.64 55.02 43.98 53.72 44.41 52.55C44.46 52.41 44.6 52.32 44.75 52.34C45.9 52.46 47.16 52.53 48.54 52.53V52.52ZM41.22 56.77H36.57C36.38 56.77 36.22 56.6 36.24 56.41C36.43 54.54 37.03 52.75 38 51.16C38.08 51.03 38.24 50.97 38.39 51.02C39.15 51.28 40.43 51.65 42.15 51.97C42.35 52.01 42.47 52.21 42.4 52.4C41.95 53.75 41.66 55.12 41.54 56.48C41.53 56.65 41.38 56.78 41.21 56.78L41.22 56.77ZM41.53 59.02C41.62 60.4 41.89 61.76 42.34 63.11C42.4 63.3 42.28 63.5 42.09 63.54C40.4 63.85 39.15 64.22 38.4 64.47C38.25 64.52 38.09 64.47 38.01 64.33C37.04 62.74 36.44 60.95 36.25 59.08C36.23 58.89 36.38 58.72 36.58 58.72H41.21C41.38 58.72 41.53 58.85 41.54 59.02H41.53ZM56.58 58.71H61.22C61.41 58.71 61.57 58.88 61.55 59.07C61.35 61.02 60.7 62.88 59.66 64.52C59.58 64.65 59.41 64.71 59.26 64.65C58.74 64.45 57.5 64.02 55.65 63.64C55.46 63.6 55.34 63.4 55.4 63.21C55.87 61.83 56.15 60.42 56.25 59C56.26 58.83 56.41 58.7 56.58 58.7V58.71ZM56.22 56.48C56.1 55.08 55.8 53.68 55.32 52.28C55.26 52.09 55.37 51.89 55.57 51.85C57.47 51.47 58.73 51.03 59.26 50.83C59.41 50.77 59.57 50.83 59.66 50.96C60.7 52.6 61.35 54.46 61.55 56.41C61.57 56.6 61.42 56.77 61.22 56.77H56.56C56.39 56.77 56.25 56.64 56.23 56.47L56.22 56.48ZM57.76 49.29C57.07 49.51 56.02 49.79 54.68 50.04C54.53 50.07 54.39 49.99 54.32 49.86C53.89 48.98 53.38 48.11 52.82 47.26C52.51 46.8 52.21 46.37 51.91 45.99C51.72 45.74 51.95 45.39 52.26 45.47C54.37 46.04 56.3 47.16 57.89 48.75C58.06 48.93 57.99 49.22 57.76 49.29ZM45.52 45.48C45.82 45.4 46.06 45.75 45.87 46C45.58 46.39 45.27 46.81 44.96 47.27C44.37 48.15 43.85 49.06 43.4 49.98C43.34 50.11 43.19 50.19 43.05 50.16C41.74 49.95 40.67 49.69 39.89 49.46C39.65 49.39 39.57 49.1 39.74 48.92C39.79 48.87 39.85 48.81 39.9 48.76C41.48 47.18 43.41 46.06 45.52 45.49V45.48ZM39.89 66.03C40.66 65.81 41.7 65.56 42.98 65.35C43.12 65.33 43.26 65.4 43.33 65.53C44 66.87 44.84 68.2 45.86 69.5C46.06 69.75 45.82 70.1 45.52 70.02C43.41 69.45 41.48 68.33 39.9 66.75C39.85 66.7 39.79 66.64 39.74 66.59C39.57 66.41 39.65 66.12 39.89 66.05V66.03ZM51.9 69.49C52.9 68.22 53.73 66.94 54.38 65.63C54.45 65.5 54.59 65.43 54.73 65.46C56.04 65.7 57.06 65.98 57.75 66.2C57.98 66.27 58.05 66.57 57.88 66.74C56.29 68.33 54.35 69.45 52.24 70.02C51.93 70.1 51.7 69.75 51.9 69.5V69.49Z" fill="#2F2F2F"/>
<mask id="mask0_1590_10686" style="mask-type:luminance" maskUnits="userSpaceOnUse" x="10" y="12" width="80" height="79">
<path d="M50.0002 90.6199C71.589 90.6199 89.0901 73.1188 89.0901 51.5299C89.0901 29.9411 71.589 12.4399 50.0002 12.4399C28.4113 12.4399 10.9102 29.9411 10.9102 51.5299C10.9102 73.1188 28.4113 90.6199 50.0002 90.6199Z" fill="white"/>
</mask>
<g mask="url(#mask0_1590_10686)">
<path d="M67.9701 27.59H31.8101C29.0486 27.59 26.8101 29.8285 26.8101 32.59V85.62C26.8101 88.3814 29.0486 90.62 31.8101 90.62H67.9701C70.7315 90.62 72.9701 88.3814 72.9701 85.62V32.59C72.9701 29.8285 70.7315 27.59 67.9701 27.59Z" fill="#B4F34C"/>
</g>
<path d="M62.8903 45.05C59.4503 41.61 54.8703 39.71 50.0003 39.71C45.1303 39.71 40.5503 41.61 37.1103 45.05C33.6703 48.49 31.7703 53.07 31.7703 57.94C31.7703 62.81 33.6703 67.39 37.1103 70.83C40.5503 74.27 45.1303 76.17 50.0003 76.17C54.8703 76.17 59.4503 74.27 62.8903 70.83C66.3303 67.39 68.2303 62.81 68.2303 57.94C68.2303 53.07 66.3303 48.49 62.8903 45.05ZM49.5803 64.44H49.5603C47.8103 64.44 46.2003 64.54 44.7503 64.69C44.5603 64.71 44.3903 64.6 44.3203 64.42C43.7403 62.83 43.3803 61.22 43.2503 59.59C43.2303 59.35 43.4203 59.15 43.6603 59.15H56.3203C56.5603 59.15 56.7503 59.35 56.7303 59.59C56.5903 61.25 56.2203 62.89 55.6203 64.51C55.5503 64.69 55.3803 64.8 55.1903 64.78C53.5403 64.58 51.6603 64.44 49.5803 64.44ZM54.1503 67.67C53.2803 69.21 52.2003 70.72 50.9103 72.22C50.4303 72.78 49.5703 72.78 49.0903 72.22C47.7703 70.7 46.6803 69.16 45.8003 67.59C45.6503 67.33 45.8303 67 46.1203 66.98C47.1903 66.9 48.3503 66.85 49.5803 66.85C51.1203 66.85 52.5503 66.93 53.8403 67.06C54.1403 67.09 54.3003 67.41 54.1603 67.67H54.1503ZM49.0703 43.65C49.5503 43.08 50.4303 43.08 50.9103 43.65C51.5103 44.36 52.2103 45.25 52.9203 46.31C53.3003 46.88 53.7003 47.53 54.0803 48.24C54.2203 48.5 54.0503 48.82 53.7603 48.84C52.4803 48.96 51.0803 49.04 49.5703 49.04C48.3703 49.04 47.2403 48.99 46.1903 48.91C45.9003 48.89 45.7203 48.57 45.8603 48.31C46.2603 47.57 46.6703 46.9 47.0603 46.31C47.7603 45.25 48.4603 44.36 49.0703 43.65ZM49.5703 51.45H49.5903C51.6303 51.45 53.4803 51.32 55.1003 51.13C55.2903 51.11 55.4703 51.22 55.5303 51.39C56.0803 52.88 56.5103 54.53 56.7003 56.29C56.7203 56.53 56.5303 56.74 56.2903 56.74H43.7003C43.4603 56.74 43.2703 56.53 43.2903 56.29C43.4703 54.56 43.8903 52.94 44.4203 51.48C44.4803 51.3 44.6603 51.19 44.8403 51.21C46.2703 51.35 47.8403 51.45 49.5603 51.45H49.5703ZM40.4503 56.74H34.6603C34.4203 56.74 34.2303 56.53 34.2503 56.29C34.4903 53.96 35.2403 51.74 36.4403 49.76C36.5403 49.6 36.7403 49.52 36.9203 49.58C37.8703 49.9 39.4603 50.37 41.6003 50.76C41.8503 50.8 41.9903 51.06 41.9103 51.29C41.3503 52.98 40.9903 54.67 40.8403 56.37C40.8203 56.58 40.6403 56.74 40.4303 56.74H40.4503ZM40.8303 59.53C40.9503 61.25 41.2803 62.94 41.8403 64.62C41.9203 64.86 41.7703 65.11 41.5203 65.15C39.4203 65.53 37.8603 65.99 36.9303 66.31C36.7503 66.37 36.5503 66.3 36.4503 66.13C35.2503 64.15 34.5003 61.93 34.2603 59.6C34.2403 59.36 34.4303 59.15 34.6703 59.15H40.4303C40.6403 59.15 40.8203 59.32 40.8403 59.53H40.8303ZM59.5603 59.15H65.3303C65.5703 59.15 65.7603 59.36 65.7403 59.6C65.4903 62.03 64.6903 64.34 63.3903 66.39C63.2903 66.55 63.0803 66.62 62.9003 66.55C62.2603 66.3 60.7103 65.77 58.4003 65.3C58.1603 65.25 58.0203 65 58.0903 64.77C58.6703 63.05 59.0303 61.3 59.1503 59.53C59.1603 59.32 59.3403 59.15 59.5603 59.15ZM59.1203 56.37C58.9703 54.63 58.5903 52.88 58.0003 51.15C57.9203 50.92 58.0603 50.67 58.3103 50.62C60.6703 50.14 62.2503 49.6 62.9003 49.35C63.0803 49.28 63.2903 49.35 63.3903 49.51C64.6803 51.55 65.4903 53.87 65.7403 56.3C65.7603 56.54 65.5703 56.75 65.3303 56.75H59.5303C59.3203 56.75 59.1403 56.59 59.1203 56.38V56.37ZM61.0303 47.43C60.1703 47.7 58.8703 48.06 57.2003 48.36C57.0203 48.39 56.8403 48.3 56.7603 48.14C56.2203 47.04 55.5903 45.96 54.8903 44.9C54.5103 44.33 54.1303 43.8 53.7603 43.32C53.5203 43.01 53.8103 42.57 54.1903 42.68C56.8203 43.39 59.2203 44.78 61.2003 46.76C61.4103 46.98 61.3203 47.34 61.0403 47.43H61.0303ZM45.8003 42.69C46.1803 42.59 46.4703 43.02 46.2303 43.33C45.8603 43.81 45.4803 44.34 45.1003 44.91C44.3703 46.01 43.7203 47.14 43.1603 48.28C43.0803 48.44 42.9003 48.54 42.7203 48.51C41.0903 48.24 39.7603 47.92 38.7903 47.65C38.4903 47.57 38.3903 47.2 38.6103 46.97C38.6803 46.9 38.7403 46.83 38.8103 46.77C40.7803 44.8 43.1803 43.41 45.8003 42.7V42.69ZM38.8003 68.26C39.7603 67.99 41.0603 67.67 42.6503 67.41C42.8303 67.38 43.0003 67.47 43.0803 67.63C43.9103 69.3 44.9603 70.95 46.2303 72.56C46.4703 72.87 46.1803 73.31 45.8003 73.21C43.1803 72.49 40.7803 71.11 38.8103 69.14C38.7403 69.07 38.6803 69.01 38.6103 68.94C38.4003 68.72 38.5003 68.35 38.7903 68.26H38.8003ZM53.7503 72.57C54.9903 70.99 56.0203 69.39 56.8403 67.76C56.9203 67.6 57.1003 67.51 57.2803 67.54C58.9103 67.84 60.1803 68.19 61.0303 68.46C61.3203 68.55 61.4103 68.92 61.1903 69.13C59.2103 71.11 56.8003 72.5 54.1703 73.22C53.7903 73.32 53.5003 72.88 53.7403 72.57H53.7503Z" fill="white"/>
</g>
<defs>
<filter id="filter0_d_1590_10686" x="-4" y="0.219971" width="108" height="108" filterUnits="userSpaceOnUse" color-interpolation-filters="sRGB">
<feFlood flood-opacity="0" result="BackgroundImageFix"/>
<feColorMatrix in="SourceAlpha" type="matrix" values="0 0 0 0 0 0 0 0 0 0 0 0 0 0 0 0 0 0 127 0" result="hardAlpha"/>
<feOffset dy="4"/>
<feGaussianBlur stdDeviation="2"/>
<feComposite in2="hardAlpha" operator="out"/>
<feColorMatrix type="matrix" values="0 0 0 0 0 0 0 0 0 0 0 0 0 0 0 0 0 0 0.25 0"/>
<feBlend mode="normal" in2="BackgroundImageFix" result="effect1_dropShadow_1590_10686"/>
<feBlend mode="normal" in="SourceGraphic" in2="effect1_dropShadow_1590_10686" result="shape"/>
</filter>
<filter id="filter1_d_1590_10686" x="4.91016" y="9.43994" width="90.1799" height="90.1801" filterUnits="userSpaceOnUse" color-interpolation-filters="sRGB">
<feFlood flood-opacity="0" result="BackgroundImageFix"/>
<feColorMatrix in="SourceAlpha" type="matrix" values="0 0 0 0 0 0 0 0 0 0 0 0 0 0 0 0 0 0 127 0" result="hardAlpha"/>
<feOffset dy="3"/>
<feGaussianBlur stdDeviation="3"/>
<feComposite in2="hardAlpha" operator="out"/>
<feColorMatrix type="matrix" values="0 0 0 0 0 0 0 0 0 0 0 0 0 0 0 0 0 0 0.25 0"/>
<feBlend mode="normal" in2="BackgroundImageFix" result="effect1_dropShadow_1590_10686"/>
<feBlend mode="normal" in="SourceGraphic" in2="effect1_dropShadow_1590_10686" result="shape"/>
</filter>
</defs>
</svg>
