<svg width="21" height="20" viewBox="0 0 21 20" fill="currentColor" xmlns="http://www.w3.org/2000/svg">
<path d="M18.0198 15.7155H2.97983C2.12183 15.7155 1.42383 15.0175 1.42383 14.1595C1.42383 13.3015 2.12183 12.6035 2.97983 12.6035H18.0178C18.8758 12.6035 19.5738 13.3015 19.5738 14.1595C19.5738 15.0175 18.8758 15.7155 18.0178 15.7155H18.0198ZM2.97983 13.6035C2.67183 13.6035 2.42383 13.8535 2.42383 14.1595C2.42383 14.4655 2.67383 14.7155 2.97983 14.7155H18.0178C18.3258 14.7155 18.5738 14.4655 18.5738 14.1595C18.5738 13.8535 18.3238 13.6035 18.0178 13.6035H2.97983Z" fill="currentColor"/>
<path d="M5.22228 6.40963C5.35228 5.75363 5.76228 5.19163 6.34828 4.86763L8.78828 3.52363V3.42963C8.78828 2.48563 9.55628 1.71963 10.5003 1.71963C10.5763 1.71963 10.6523 1.72563 10.7283 1.73563C11.5743 1.84763 12.2103 2.59563 12.2103 3.47763V3.52563L14.6503 4.86963C15.2363 5.19163 15.6463 5.75363 15.7763 6.41163L16.9963 12.6056H17.5063L16.2663 6.31563C16.1083 5.51363 15.6063 4.82763 14.8903 4.43363L12.6943 3.22563C12.5803 2.20763 11.8003 1.37763 10.7923 1.24363C10.6943 1.23163 10.5963 1.22363 10.4983 1.22363C9.34828 1.22363 8.40228 2.10563 8.29628 3.22763L6.10428 4.43363C5.38828 4.82763 4.88628 5.51363 4.72828 6.31563L3.48828 12.6056H3.99828L5.21828 6.41163L5.22228 6.40963Z" fill="currentColor"/>
<path d="M14.6519 4.86777L12.2119 3.52377V3.47577C12.2119 2.59577 11.5739 1.84577 10.7299 1.73377C10.6539 1.72377 10.5779 1.71777 10.5019 1.71777C9.55791 1.71777 8.78991 2.48577 8.78991 3.42777V3.52177L6.34991 4.86577C5.76391 5.18777 5.35391 5.74977 5.22391 6.40777L4.00391 12.6018H4.51391L5.71591 6.50377C5.81591 5.99377 6.13791 5.55377 6.59191 5.30377L9.08391 3.93177C9.21191 3.86177 9.29191 3.72777 9.29191 3.58177V3.42977C9.29191 2.76377 9.83591 2.21977 10.5039 2.21977C10.5579 2.21977 10.6119 2.22377 10.6659 2.22977C11.2759 2.30977 11.7139 2.85977 11.7139 3.47577V3.58177C11.7139 3.72777 11.7939 3.86177 11.9219 3.93177L14.4139 5.30377C14.8699 5.55377 15.1899 5.99377 15.2899 6.50377L16.4919 12.6018H17.0019L15.7819 6.40777C15.6519 5.75177 15.2419 5.18977 14.6559 4.86577L14.6519 4.86777Z" fill="currentColor"/>
<path d="M10.5001 17.7798C9.32009 17.7798 8.34809 16.8718 8.24609 15.7178H7.24609C7.35209 17.4238 8.76809 18.7798 10.5001 18.7798C12.2321 18.7798 13.6481 17.4238 13.7541 15.7178H12.7541C12.6521 16.8718 11.6801 17.7798 10.5001 17.7798Z" fill="current"/>
</svg>
