<svg width="20" height="21" viewBox="0 0 20 21" fill="none" xmlns="http://www.w3.org/2000/svg">
<path d="M16.2624 18.154H3.90039C3.62439 18.154 3.40039 17.93 3.40039 17.654V10.75C3.40039 10.474 3.62439 10.25 3.90039 10.25H6.35439C6.63039 10.25 6.85439 10.474 6.85439 10.75C6.85439 11.026 6.63039 11.25 6.35439 11.25H4.40039V17.154H15.7624V11.25H13.8084C13.5324 11.25 13.3084 11.026 13.3084 10.75C13.3084 10.474 13.5324 10.25 13.8084 10.25H16.2624C16.5384 10.25 16.7624 10.474 16.7624 10.75V17.654C16.7624 17.93 16.5384 18.154 16.2624 18.154Z" fill="#373737"/>
<path fill-rule="evenodd" clip-rule="evenodd" d="M6.54755 5.7864L9.74511 2.40555C9.94132 2.19808 10.2595 2.19808 10.4557 2.40555L13.6532 5.7864C13.8494 5.99387 13.8494 6.33024 13.6532 6.53771C13.457 6.74517 13.1389 6.74517 12.9427 6.53771L10.6028 4.06375L10.6028 11.9187C10.6028 12.2121 10.3779 12.45 10.1004 12.45C9.8229 12.45 9.59794 12.2121 9.59794 11.9187L9.59794 4.06375L7.25812 6.53771C7.0619 6.74517 6.74377 6.74517 6.54755 6.53771C6.35134 6.33024 6.35134 5.99387 6.54755 5.7864Z" fill="#373737"/>
</svg>
